<svg xmlns="http://www.w3.org/2000/svg" xmlns:xlink="http://www.w3.org/1999/xlink" width="500" zoomAndPan="magnify" viewBox="0 0 375 374.999991" height="500" preserveAspectRatio="xMidYMid meet" version="1.0"><defs><clipPath id="59f5da78f8"><path d="M 8 106 L 346 106 L 346 269 L 8 269 Z M 8 106 " clip-rule="nonzero"/></clipPath><clipPath id="6d3e9893b7"><path d="M -3.273438 211.929688 L 91.988281 20.582031 L 378.003906 162.972656 L 282.742188 354.320312 Z M -3.273438 211.929688 " clip-rule="nonzero"/></clipPath><clipPath id="b10351421e"><path d="M 378.269531 163.066406 L 283.007812 354.414062 L -3.007812 212.023438 L 92.253906 20.675781 Z M 378.269531 163.066406 " clip-rule="nonzero"/></clipPath></defs><g clip-path="url(#59f5da78f8)"><g clip-path="url(#6d3e9893b7)"><g clip-path="url(#b10351421e)"><path fill="#ffffff" d="M 334.09375 227.609375 C 333.320312 222.707031 332.972656 217.820312 332.832031 213.199219 C 332.5625 214.292969 332.273438 215.34375 331.964844 216.363281 C 331.882812 216.640625 331.78125 216.894531 331.664062 217.128906 C 331.585938 217.292969 331.492188 217.449219 331.390625 217.601562 C 331.5 220.664062 331.683594 223.863281 331.941406 227.136719 L 332.882812 227.417969 C 333.03125 227.464844 333.175781 227.519531 333.3125 227.578125 Z M 312.417969 213.039062 C 311.949219 213.828125 311.460938 214.617188 310.960938 215.394531 C 311.792969 215.457031 312.621094 215.515625 313.453125 215.578125 C 313.28125 214.464844 313.121094 213.390625 312.96875 212.347656 C 312.785156 212.578125 312.601562 212.804688 312.417969 213.039062 Z M 303.839844 208.113281 C 303.90625 208.417969 303.972656 208.71875 304.039062 209.019531 C 304.195312 208.734375 304.351562 208.449219 304.507812 208.167969 C 304.285156 208.152344 304.066406 208.132812 303.839844 208.113281 Z M 302.339844 188.601562 C 302.296875 189.875 302.277344 191.128906 302.277344 192.347656 L 303.324219 192.335938 C 304.410156 191 305.464844 189.734375 306.507812 188.507812 C 305.117188 188.535156 303.726562 188.570312 302.339844 188.601562 Z M 311.371094 174.363281 C 310.332031 175.054688 309.296875 175.769531 308.273438 176.503906 C 307.933594 177.242188 307.582031 177.976562 307.21875 178.703125 C 307.09375 178.957031 306.964844 179.214844 306.835938 179.46875 C 308.210938 179.5625 309.585938 179.660156 310.960938 179.765625 C 311.050781 177.9375 311.191406 176.132812 311.371094 174.363281 Z M 285.925781 207.039062 C 287.558594 207.546875 289.191406 208.078125 290.800781 208.628906 C 291.140625 208.171875 291.480469 207.714844 291.820312 207.253906 C 289.90625 207.132812 287.988281 207.011719 286.070312 206.894531 C 286.023438 206.945312 285.972656 206.992188 285.925781 207.039062 Z M 323.027344 150.964844 C 318.636719 150.851562 314.242188 150.746094 309.847656 150.644531 C 310.246094 151.789062 310.199219 153.085938 309.683594 154.121094 C 309.617188 154.253906 309.546875 154.382812 309.46875 154.503906 C 312.632812 154.554688 315.730469 154.664062 318.714844 154.824219 C 318.773438 154.828125 318.910156 154.847656 318.96875 154.855469 C 319.066406 154.863281 319.234375 154.886719 319.402344 154.921875 C 319.5 154.941406 319.601562 154.960938 319.703125 154.988281 C 319.832031 155.027344 319.925781 155.058594 320.019531 155.097656 C 320.472656 155.261719 320.867188 155.480469 321.203125 155.753906 C 321.574219 156.042969 321.898438 156.390625 322.152344 156.785156 C 322.175781 156.734375 322.199219 156.683594 322.222656 156.632812 C 322.253906 156.570312 322.289062 156.507812 322.324219 156.445312 C 322.527344 154.640625 322.761719 152.804688 323.027344 150.964844 Z M 259.582031 189.828125 C 259.046875 190.589844 258.503906 191.347656 257.960938 192.105469 C 258.199219 192.113281 258.441406 192.117188 258.683594 192.121094 C 259.242188 191.324219 259.789062 190.554688 260.328125 189.804688 Z M 238.53125 191.5625 L 239.90625 191.605469 C 240.183594 191.21875 240.460938 190.832031 240.738281 190.441406 L 239.363281 190.484375 C 239.089844 190.847656 238.808594 191.203125 238.53125 191.5625 Z M 157.179688 221.703125 C 157.179688 221.703125 160.785156 221.773438 161.234375 221.78125 C 160.03125 221.609375 158.824219 221.433594 157.617188 221.257812 C 157.472656 221.40625 157.328125 221.558594 157.179688 221.703125 Z M 106.234375 254.5 C 105.824219 255.101562 105.269531 255.574219 104.628906 255.894531 C 104.933594 256.03125 106.492188 256.707031 106.492188 256.707031 C 107.71875 257.242188 108.972656 257.789062 110.234375 258.242188 C 109.820312 256.613281 109.527344 254.941406 109.316406 253.261719 C 108.527344 254.039062 107.394531 254.496094 106.234375 254.5 Z M 123.0625 214.996094 C 122.054688 215.984375 121.035156 216.964844 120.007812 217.929688 C 118.996094 218.875 117.703125 219.265625 116.453125 219 C 116.347656 218.976562 116.242188 218.953125 116.136719 218.917969 C 116.128906 219.179688 116.121094 219.441406 116.113281 219.703125 C 117.796875 219.894531 119.636719 220.078125 121.25 220.234375 C 129.105469 221 137.023438 221.253906 145.113281 221.453125 C 145.546875 220.796875 145.972656 220.140625 146.398438 219.488281 C 143.109375 218.933594 139.820312 218.34375 136.585938 217.734375 C 135.644531 218.476562 134.703125 219.210938 133.75 219.9375 C 132.375 220.984375 130.558594 220.894531 129.121094 219.707031 C 127.9375 218.730469 127.382812 217.289062 127.609375 215.960938 C 126.09375 215.644531 124.578125 215.324219 123.0625 214.996094 Z M 82.734375 210.515625 C 82.308594 210.691406 81.855469 210.792969 81.398438 210.8125 C 81.710938 211.402344 82.03125 211.992188 82.355469 212.582031 C 82.484375 211.898438 82.613281 211.207031 82.734375 210.515625 Z M 107.8125 154.796875 C 107.984375 154.945312 108.140625 155.109375 108.289062 155.289062 C 109.058594 154.742188 109.824219 154.210938 110.582031 153.695312 C 109.707031 153.96875 108.824219 154.269531 107.941406 154.597656 C 107.894531 154.667969 107.851562 154.730469 107.8125 154.796875 Z M 79.757812 201.046875 C 79.0625 201.632812 78.363281 202.214844 77.65625 202.792969 C 77.832031 203.222656 78.007812 203.648438 78.191406 204.078125 C 78.753906 203.109375 79.320312 202.148438 79.894531 201.183594 C 79.851562 201.136719 79.804688 201.09375 79.757812 201.046875 Z M 61.023438 228.183594 C 62.308594 229.316406 63.617188 230.417969 64.960938 231.492188 C 63.707031 230.414062 62.394531 229.3125 61.023438 228.183594 Z M 78.277344 184.175781 L 78.957031 184.011719 C 79.082031 183.847656 79.210938 183.683594 79.339844 183.519531 C 79.285156 183.511719 79.226562 183.507812 79.167969 183.5 C 78.875 183.722656 78.574219 183.949219 78.277344 184.175781 Z M 101.582031 132.765625 C 102.546875 132.414062 103.609375 132.398438 104.5 132.660156 C 106.070312 133.113281 107.0625 134.34375 107.171875 135.894531 C 108.222656 135.625 109.199219 135.394531 110.132812 135.191406 C 110.738281 135.0625 111.359375 135.074219 111.957031 135.210938 C 112.003906 131.949219 112.019531 128.582031 111.90625 125.234375 C 111.816406 125.296875 104.9375 130.320312 101.582031 132.765625 Z M 97.882812 135.457031 C 97.992188 135.878906 98.03125 136.328125 97.992188 136.800781 C 97.964844 137.152344 97.921875 137.507812 97.863281 137.867188 C 98.011719 137.820312 98.160156 137.773438 98.308594 137.730469 C 98.539062 136.957031 98.773438 136.1875 99.011719 135.417969 C 99.078125 135.203125 99.160156 135 99.257812 134.804688 C 99.371094 134.578125 99.5 134.367188 99.648438 134.175781 C 99.28125 134.441406 97.882812 135.457031 97.882812 135.457031 Z M 66.019531 198.085938 C 66.515625 198.519531 67 198.941406 67.464844 199.359375 C 67.300781 198.828125 67.136719 198.300781 66.984375 197.773438 C 66.664062 197.875 66.339844 197.980469 66.019531 198.085938 Z M 86.550781 167.058594 C 85.875 167.578125 85.183594 168.113281 84.472656 168.675781 C 81.875 170.734375 79.320312 172.898438 76.824219 175.15625 C 76.933594 175.125 77.046875 175.101562 77.160156 175.082031 C 79.601562 173.15625 81.820312 171.300781 83.925781 169.4375 C 84.8125 168.652344 85.691406 167.855469 86.550781 167.058594 Z M 29.644531 203.070312 C 29.914062 203.324219 30.183594 203.578125 30.453125 203.828125 C 30.457031 203.804688 30.457031 203.78125 30.460938 203.761719 C 30.183594 203.527344 29.914062 203.300781 29.644531 203.070312 Z M 28.269531 183.628906 C 24.648438 185.894531 21.242188 187.972656 17.941406 189.925781 C 18.375 190.574219 18.824219 191.210938 19.289062 191.839844 C 19.320312 191.316406 19.457031 190.789062 19.710938 190.28125 C 20.644531 188.410156 23.027344 187.15625 25.410156 188.292969 C 26.898438 189.007812 28.382812 189.734375 29.863281 190.476562 C 30.777344 189.558594 31.738281 188.628906 32.730469 187.703125 C 32.691406 187.480469 32.679688 187.257812 32.683594 187.035156 C 32.613281 186.988281 32.550781 186.9375 32.488281 186.882812 C 31.207031 186.953125 29.96875 186.425781 29.125 185.410156 C 28.695312 184.882812 28.40625 184.277344 28.269531 183.628906 Z M 9.214844 186.847656 C 9.53125 186.214844 10.027344 185.679688 10.648438 185.308594 C 18.449219 180.625 26.429688 175.597656 35.042969 169.941406 C 38 165.902344 41.40625 162.261719 45.183594 159.117188 C 52.828125 149.589844 61.464844 142.371094 70.855469 137.664062 C 83.339844 123.246094 95.097656 114.667969 108.71875 110.089844 C 108.566406 109.425781 108.644531 108.734375 108.9375 108.140625 C 109.105469 107.804688 109.339844 107.507812 109.625 107.273438 C 110.320312 106.507812 112.117188 106.257812 112.136719 106.257812 C 112.886719 106.175781 113.65625 106.324219 114.488281 106.703125 C 115.628906 107.226562 116.648438 108.292969 117.523438 109.867188 C 117.746094 110.273438 117.949219 110.695312 118.136719 111.140625 C 119.21875 110.5625 120.261719 110.101562 121.296875 109.746094 C 122.511719 109.324219 123.71875 109.621094 124.523438 110.539062 C 125.421875 111.558594 125.613281 113.140625 124.992188 114.386719 C 124.902344 114.570312 124.792969 114.746094 124.664062 114.917969 C 123.4375 116.527344 121.871094 118.054688 119.773438 119.695312 C 119.808594 120.25 119.886719 121.839844 119.886719 121.839844 C 120.214844 128.253906 120.21875 135.097656 119.898438 143.855469 C 119.988281 143.851562 120.078125 143.84375 120.167969 143.835938 C 121.140625 143.769531 122.09375 144.101562 122.851562 144.769531 C 123.320312 145.183594 123.691406 145.703125 123.933594 146.273438 C 157.027344 143.566406 192.648438 142.199219 232.800781 142.085938 C 252.300781 142.03125 271.433594 142.28125 289.664062 142.832031 C 292.632812 142.921875 295.613281 142.996094 298.597656 143.074219 C 313.304688 143.449219 328.511719 143.839844 343.191406 145.90625 C 344.023438 146.023438 344.714844 146.496094 345.085938 147.203125 C 345.488281 147.972656 345.484375 148.96875 345.066406 149.804688 C 344.601562 150.746094 343.71875 151.324219 342.707031 151.351562 L 342.347656 151.363281 C 341.398438 151.390625 340.464844 151.421875 339.515625 151.394531 L 338.433594 151.363281 C 339.4375 155.863281 340.144531 160.636719 340.589844 165.886719 C 340.808594 166.371094 340.945312 166.890625 340.984375 167.429688 C 341.148438 169.621094 341.210938 171.886719 341.171875 174.164062 C 341.796875 174.445312 342.332031 174.886719 342.710938 175.445312 C 343.285156 176.292969 343.421875 177.316406 343.101562 178.320312 C 342.5625 180.007812 341.9375 181.835938 341.140625 184.058594 C 341.117188 186.441406 341.066406 188.824219 341.007812 191.214844 C 342.007812 191.40625 342.851562 191.957031 343.40625 192.800781 C 344.210938 194.03125 344.289062 195.726562 343.597656 197.113281 C 343.03125 198.257812 342.027344 199.039062 340.785156 199.316406 C 340.515625 209.480469 340.398438 218.738281 341.292969 227.933594 C 342.226562 228.097656 343.019531 228.632812 343.496094 229.449219 C 344.074219 230.429688 344.117188 231.664062 343.617188 232.671875 C 343.097656 233.71875 342.046875 234.359375 340.808594 234.378906 C 338.960938 234.40625 334.53125 234.453125 334.53125 234.453125 C 333.855469 235.074219 332.960938 235.394531 331.964844 235.363281 C 331.429688 236.257812 330.496094 236.902344 329.363281 237.152344 C 327.960938 237.460938 326.496094 237.136719 325.445312 236.292969 C 324.71875 235.714844 323.988281 235.144531 323.25 234.585938 L 322.894531 234.554688 L 319.226562 234.585938 C 319.042969 235.085938 318.867188 235.585938 318.703125 236.089844 C 318.648438 236.242188 318.589844 236.386719 318.523438 236.523438 C 317.796875 237.984375 316.070312 238.613281 314.503906 237.988281 C 313.101562 237.429688 312.398438 236.0625 312.742188 234.617188 C 272.574219 234.691406 235.609375 233.605469 199.796875 231.304688 L 195.503906 231.023438 C 187.964844 230.527344 180.171875 230.007812 172.417969 229.84375 C 168.652344 229.761719 164.882812 229.691406 161.113281 229.628906 C 157.222656 229.558594 153.328125 229.488281 149.433594 229.402344 L 148.953125 229.871094 C 147.992188 230.789062 146.679688 231.152344 145.347656 230.859375 C 144.300781 230.632812 143.382812 230.035156 142.785156 229.230469 C 142.785156 229.230469 140.40625 229.167969 139.542969 229.140625 C 134.09375 228.964844 129.523438 228.773438 124.914062 228.425781 C 124.296875 228.378906 123.671875 228.34375 123.03125 228.300781 C 120.660156 228.148438 118.226562 227.996094 115.886719 227.480469 C 115.738281 234.40625 115.691406 242.355469 116.226562 250.234375 C 116.414062 252.953125 116.621094 256.035156 117.203125 258.90625 C 117.277344 259.257812 117.339844 259.625 117.40625 259.992188 C 117.660156 261.414062 117.921875 262.882812 118.648438 263.84375 C 119.226562 264.609375 119.3125 265.582031 118.878906 266.449219 C 118.449219 267.316406 117.5625 267.945312 116.625 268.050781 C 115.789062 268.144531 115.003906 267.820312 114.464844 267.167969 C 113.746094 266.285156 113.101562 265.316406 112.511719 264.226562 C 112.152344 264.195312 111.796875 264.15625 111.433594 264.117188 C 106.359375 263.570312 100.976562 261.859375 94.550781 258.742188 C 93.800781 259.078125 92.96875 259.191406 92.171875 259.058594 C 91.082031 258.878906 90.140625 258.269531 89.449219 257.300781 C 88.972656 256.632812 88.484375 255.96875 87.996094 255.316406 L 86.46875 254.476562 C 83.597656 252.886719 80.710938 251.195312 77.636719 249.3125 C 70.5625 245.566406 63.828125 241.035156 57.691406 235.890625 L 57.464844 235.726562 C 56.726562 235.195312 55.996094 234.664062 55.265625 234.125 C 43.730469 225.609375 34.640625 218.160156 26.660156 210.679688 C 20.511719 204.917969 13.542969 198.390625 9.3125 190.535156 C 8.683594 189.363281 8.648438 187.988281 9.214844 186.847656 " fill-opacity="1" fill-rule="nonzero"/></g></g></g></svg>