<svg xmlns="http://www.w3.org/2000/svg" xmlns:xlink="http://www.w3.org/1999/xlink" width="500" zoomAndPan="magnify" viewBox="0 0 375 374.999991" height="500" preserveAspectRatio="xMidYMid meet" version="1.0"><defs><clipPath id="f536911624"><path d="M 29 106 L 367 106 L 367 269 L 29 269 Z M 29 106 " clip-rule="nonzero"/></clipPath><clipPath id="f8bc525664"><path d="M -3.273438 211.929688 L 91.988281 20.582031 L 378.003906 162.972656 L 282.742188 354.320312 Z M -3.273438 211.929688 " clip-rule="nonzero"/></clipPath><clipPath id="767eac67c3"><path d="M -3.273438 211.929688 L 91.988281 20.582031 L 378.003906 162.972656 L 282.742188 354.320312 Z M -3.273438 211.929688 " clip-rule="nonzero"/></clipPath></defs><g clip-path="url(#f536911624)"><g clip-path="url(#f8bc525664)"><g clip-path="url(#767eac67c3)"><path fill="#ffffff" d="M 40.902344 147.386719 C 41.675781 152.289062 42.023438 157.175781 42.164062 161.796875 C 42.433594 160.703125 42.722656 159.652344 43.027344 158.632812 C 43.113281 158.355469 43.214844 158.097656 43.332031 157.867188 C 43.410156 157.703125 43.503906 157.546875 43.605469 157.394531 C 43.496094 154.332031 43.3125 151.132812 43.054688 147.859375 L 42.113281 147.578125 C 41.964844 147.53125 41.820312 147.476562 41.679688 147.417969 Z M 62.578125 161.957031 C 63.046875 161.167969 63.535156 160.375 64.035156 159.597656 C 63.203125 159.539062 62.375 159.480469 61.542969 159.417969 C 61.714844 160.53125 61.875 161.605469 62.027344 162.648438 C 62.210938 162.417969 62.394531 162.1875 62.578125 161.957031 Z M 71.152344 166.882812 C 71.089844 166.578125 71.023438 166.277344 70.957031 165.976562 C 70.800781 166.261719 70.644531 166.546875 70.488281 166.828125 C 70.710938 166.84375 70.929688 166.863281 71.152344 166.882812 Z M 72.65625 186.394531 C 72.699219 185.117188 72.71875 183.867188 72.714844 182.644531 L 71.671875 182.660156 C 70.585938 183.992188 69.53125 185.261719 68.488281 186.488281 C 69.878906 186.457031 71.265625 186.425781 72.65625 186.394531 Z M 63.625 200.632812 C 64.664062 199.941406 65.699219 199.222656 66.722656 198.492188 C 67.0625 197.753906 67.414062 197.019531 67.777344 196.292969 C 67.902344 196.035156 68.03125 195.78125 68.160156 195.527344 C 66.785156 195.433594 65.410156 195.332031 64.035156 195.230469 C 63.945312 197.058594 63.804688 198.863281 63.625 200.632812 Z M 89.070312 167.957031 C 87.4375 167.445312 85.804688 166.917969 84.195312 166.367188 C 83.855469 166.824219 83.515625 167.28125 83.175781 167.742188 C 85.089844 167.863281 87.007812 167.984375 88.925781 168.097656 C 88.972656 168.050781 89.023438 168.003906 89.070312 167.957031 Z M 51.964844 224.03125 C 56.359375 224.144531 60.753906 224.25 65.148438 224.351562 C 64.75 223.207031 64.796875 221.910156 65.3125 220.875 C 65.378906 220.742188 65.449219 220.613281 65.527344 220.492188 C 62.363281 220.441406 59.265625 220.332031 56.28125 220.171875 C 56.222656 220.167969 56.085938 220.148438 56.027344 220.140625 C 55.929688 220.132812 55.761719 220.109375 55.59375 220.074219 C 55.492188 220.054688 55.394531 220.03125 55.292969 220.007812 C 55.164062 219.96875 55.070312 219.933594 54.976562 219.898438 C 54.523438 219.734375 54.128906 219.515625 53.792969 219.242188 C 53.421875 218.953125 53.097656 218.605469 52.84375 218.210938 C 52.820312 218.261719 52.796875 218.3125 52.773438 218.363281 C 52.742188 218.425781 52.707031 218.488281 52.667969 218.550781 C 52.46875 220.355469 52.234375 222.191406 51.964844 224.03125 Z M 115.410156 185.164062 C 115.949219 184.40625 116.492188 183.648438 117.035156 182.890625 C 116.796875 182.882812 116.554688 182.878906 116.3125 182.875 C 115.753906 183.671875 115.207031 184.441406 114.667969 185.191406 Z M 136.464844 183.433594 L 135.089844 183.386719 C 134.8125 183.777344 134.535156 184.164062 134.253906 184.554688 L 135.632812 184.507812 C 135.90625 184.148438 136.1875 183.789062 136.464844 183.433594 Z M 217.816406 153.292969 C 217.816406 153.292969 214.210938 153.222656 213.761719 153.214844 C 214.964844 153.386719 216.171875 153.5625 217.378906 153.738281 C 217.523438 153.589844 217.667969 153.4375 217.816406 153.292969 Z M 268.761719 120.496094 C 269.171875 119.894531 269.726562 119.421875 270.367188 119.101562 C 270.0625 118.964844 268.503906 118.289062 268.503906 118.289062 C 267.277344 117.753906 266.023438 117.207031 264.761719 116.753906 C 265.175781 118.382812 265.464844 120.054688 265.679688 121.734375 C 266.46875 120.957031 267.601562 120.5 268.761719 120.496094 Z M 251.933594 160 C 252.941406 159.011719 253.960938 158.03125 254.988281 157.066406 C 255.996094 156.121094 257.292969 155.730469 258.542969 155.992188 C 258.648438 156.019531 258.753906 156.042969 258.859375 156.078125 C 258.867188 155.816406 258.875 155.550781 258.882812 155.292969 C 257.199219 155.101562 255.359375 154.917969 253.746094 154.761719 C 245.890625 153.992188 237.972656 153.742188 229.882812 153.542969 C 229.449219 154.199219 229.023438 154.851562 228.597656 155.507812 C 231.886719 156.0625 235.175781 156.652344 238.410156 157.261719 C 239.351562 156.519531 240.292969 155.785156 241.246094 155.058594 C 242.621094 154.011719 244.4375 154.101562 245.875 155.289062 C 247.058594 156.265625 247.613281 157.707031 247.386719 159.03125 C 248.902344 159.347656 250.417969 159.671875 251.933594 160 Z M 292.261719 164.476562 C 292.6875 164.304688 293.140625 164.203125 293.597656 164.179688 C 293.285156 163.589844 292.964844 163 292.640625 162.414062 C 292.511719 163.097656 292.382812 163.789062 292.261719 164.476562 Z M 267.183594 220.199219 C 267.011719 220.050781 266.855469 219.886719 266.707031 219.703125 C 265.9375 220.253906 265.171875 220.785156 264.414062 221.300781 C 265.285156 221.027344 266.171875 220.726562 267.054688 220.394531 C 267.101562 220.328125 267.144531 220.265625 267.183594 220.199219 Z M 295.238281 173.949219 C 295.933594 173.363281 296.632812 172.78125 297.339844 172.203125 C 297.164062 171.773438 296.988281 171.347656 296.804688 170.917969 C 296.242188 171.886719 295.675781 172.847656 295.101562 173.8125 C 295.144531 173.859375 295.191406 173.902344 295.238281 173.949219 Z M 313.972656 146.8125 C 312.6875 145.675781 311.378906 144.578125 310.035156 143.503906 C 311.289062 144.582031 312.601562 145.683594 313.972656 146.8125 Z M 296.71875 190.820312 L 296.039062 190.984375 C 295.914062 191.148438 295.785156 191.3125 295.65625 191.476562 C 295.710938 191.484375 295.769531 191.488281 295.824219 191.496094 C 296.121094 191.273438 296.421875 191.046875 296.71875 190.820312 Z M 273.414062 242.230469 C 272.449219 242.582031 271.386719 242.597656 270.496094 242.335938 C 268.925781 241.882812 267.933594 240.652344 267.824219 239.101562 C 266.773438 239.371094 265.792969 239.601562 264.863281 239.804688 C 264.257812 239.933594 263.636719 239.921875 263.039062 239.78125 C 262.992188 243.042969 262.976562 246.414062 263.089844 249.761719 C 263.179688 249.699219 270.058594 244.675781 273.414062 242.230469 Z M 277.113281 239.535156 C 277.003906 239.117188 276.964844 238.667969 277.003906 238.195312 C 277.03125 237.84375 277.074219 237.488281 277.132812 237.128906 C 276.984375 237.175781 276.835938 237.222656 276.6875 237.265625 C 276.457031 238.039062 276.222656 238.804688 275.984375 239.574219 C 275.917969 239.792969 275.835938 239.996094 275.738281 240.191406 C 275.625 240.417969 275.496094 240.628906 275.347656 240.820312 C 275.714844 240.554688 277.113281 239.535156 277.113281 239.535156 Z M 308.976562 176.910156 C 308.480469 176.476562 307.996094 176.054688 307.53125 175.636719 C 307.695312 176.167969 307.859375 176.695312 308.011719 177.222656 C 308.332031 177.121094 308.65625 177.015625 308.976562 176.910156 Z M 288.441406 207.9375 C 289.121094 207.417969 289.8125 206.882812 290.523438 206.320312 C 293.121094 204.261719 295.675781 202.097656 298.171875 199.839844 C 298.0625 199.871094 297.949219 199.894531 297.835938 199.914062 C 295.394531 201.839844 293.175781 203.695312 291.070312 205.554688 C 290.183594 206.34375 289.304688 207.140625 288.441406 207.9375 Z M 345.351562 171.925781 C 345.082031 171.671875 344.8125 171.417969 344.542969 171.167969 C 344.539062 171.191406 344.539062 171.214844 344.535156 171.234375 C 344.8125 171.46875 345.082031 171.695312 345.351562 171.925781 Z M 346.726562 191.367188 C 350.347656 189.101562 353.753906 187.023438 357.054688 185.066406 C 356.621094 184.421875 356.171875 183.785156 355.707031 183.15625 C 355.675781 183.679688 355.535156 184.207031 355.285156 184.714844 C 354.351562 186.585938 351.96875 187.839844 349.585938 186.703125 C 348.097656 185.988281 346.613281 185.261719 345.132812 184.519531 C 344.21875 185.433594 343.257812 186.367188 342.265625 187.292969 C 342.304688 187.515625 342.316406 187.738281 342.3125 187.960938 C 342.382812 188.007812 342.445312 188.058594 342.507812 188.113281 C 343.789062 188.042969 345.027344 188.570312 345.867188 189.585938 C 346.300781 190.113281 346.589844 190.71875 346.726562 191.367188 Z M 365.78125 188.148438 C 365.464844 188.78125 364.96875 189.316406 364.347656 189.6875 C 356.546875 194.371094 348.566406 199.394531 339.953125 205.050781 C 336.996094 209.09375 333.589844 212.734375 329.8125 215.875 C 322.167969 225.40625 313.53125 232.621094 304.140625 237.332031 C 291.65625 251.75 279.898438 260.328125 266.277344 264.90625 C 266.429688 265.570312 266.351562 266.261719 266.054688 266.855469 C 265.890625 267.191406 265.65625 267.484375 265.371094 267.722656 C 264.675781 268.488281 262.878906 268.738281 262.859375 268.738281 C 262.109375 268.816406 261.339844 268.671875 260.507812 268.289062 C 259.367188 267.769531 258.347656 266.703125 257.472656 265.128906 C 257.25 264.722656 257.046875 264.300781 256.859375 263.855469 C 255.777344 264.433594 254.734375 264.890625 253.695312 265.25 C 252.484375 265.671875 251.277344 265.375 250.472656 264.457031 C 249.574219 263.4375 249.382812 261.855469 250 260.609375 C 250.09375 260.425781 250.203125 260.25 250.332031 260.078125 C 251.558594 258.46875 253.125 256.941406 255.222656 255.300781 C 255.1875 254.746094 255.109375 253.15625 255.109375 253.15625 C 254.78125 246.742188 254.777344 239.898438 255.097656 231.136719 C 255.003906 231.144531 254.917969 231.152344 254.828125 231.15625 C 253.855469 231.226562 252.902344 230.894531 252.144531 230.226562 C 251.671875 229.8125 251.304688 229.292969 251.0625 228.722656 C 217.96875 231.425781 182.347656 232.796875 142.195312 232.910156 C 122.695312 232.964844 103.5625 232.714844 85.332031 232.164062 C 82.363281 232.074219 79.382812 232 76.398438 231.921875 C 61.691406 231.546875 46.484375 231.15625 31.804688 229.089844 C 30.972656 228.972656 30.28125 228.5 29.910156 227.792969 C 29.507812 227.023438 29.511719 226.023438 29.929688 225.1875 C 30.394531 224.25 31.277344 223.671875 32.289062 223.640625 L 32.648438 223.632812 C 33.597656 223.601562 34.53125 223.574219 35.480469 223.601562 L 36.5625 223.632812 C 35.558594 219.132812 34.851562 214.359375 34.40625 209.109375 C 34.1875 208.625 34.050781 208.105469 34.011719 207.566406 C 33.847656 205.371094 33.785156 203.109375 33.824219 200.832031 C 33.199219 200.550781 32.664062 200.109375 32.285156 199.550781 C 31.710938 198.703125 31.574219 197.679688 31.894531 196.675781 C 32.433594 194.988281 33.058594 193.160156 33.855469 190.9375 C 33.878906 188.554688 33.929688 186.167969 33.988281 183.78125 C 32.988281 183.589844 32.144531 183.039062 31.589844 182.195312 C 30.78125 180.964844 30.707031 179.269531 31.398438 177.882812 C 31.964844 176.738281 32.96875 175.957031 34.210938 175.679688 C 34.480469 165.515625 34.597656 156.257812 33.703125 147.0625 C 32.765625 146.898438 31.976562 146.359375 31.5 145.546875 C 30.921875 144.566406 30.875 143.332031 31.378906 142.324219 C 31.898438 141.277344 32.949219 140.636719 34.1875 140.617188 C 36.035156 140.589844 40.464844 140.542969 40.464844 140.542969 C 41.140625 139.921875 42.035156 139.601562 43.03125 139.632812 C 43.566406 138.738281 44.5 138.09375 45.632812 137.84375 C 47.035156 137.535156 48.5 137.859375 49.550781 138.703125 C 50.277344 139.28125 51.007812 139.851562 51.746094 140.410156 L 52.101562 140.4375 L 55.769531 140.410156 C 55.953125 139.910156 56.128906 139.410156 56.292969 138.90625 C 56.347656 138.753906 56.40625 138.609375 56.472656 138.472656 C 57.199219 137.011719 58.925781 136.382812 60.492188 137.007812 C 61.894531 137.566406 62.597656 138.933594 62.253906 140.378906 C 102.421875 140.300781 139.386719 141.390625 175.199219 143.691406 L 179.492188 143.972656 C 187.03125 144.46875 194.824219 144.988281 202.578125 145.152344 C 206.34375 145.234375 210.113281 145.304688 213.882812 145.367188 C 217.773438 145.4375 221.667969 145.507812 225.5625 145.59375 L 226.042969 145.125 C 227.003906 144.207031 228.316406 143.84375 229.648438 144.136719 C 230.695312 144.363281 231.613281 144.957031 232.210938 145.765625 C 232.210938 145.765625 234.589844 145.828125 235.453125 145.855469 C 240.902344 146.03125 245.472656 146.222656 250.082031 146.570312 C 250.699219 146.617188 251.324219 146.652344 251.960938 146.695312 C 254.335938 146.84375 256.769531 147 259.109375 147.515625 C 259.257812 140.589844 259.304688 132.640625 258.769531 124.761719 C 258.582031 122.042969 258.375 118.960938 257.792969 116.089844 C 257.71875 115.734375 257.65625 115.371094 257.589844 115.003906 C 257.335938 113.582031 257.074219 112.113281 256.347656 111.152344 C 255.769531 110.386719 255.683594 109.414062 256.117188 108.542969 C 256.546875 107.679688 257.433594 107.050781 258.371094 106.945312 C 259.207031 106.851562 259.992188 107.175781 260.53125 107.828125 C 261.25 108.710938 261.894531 109.679688 262.484375 110.769531 C 262.84375 110.800781 263.199219 110.839844 263.5625 110.878906 C 268.636719 111.425781 274.015625 113.136719 280.445312 116.253906 C 281.195312 115.917969 282.027344 115.804688 282.824219 115.9375 C 283.914062 116.117188 284.855469 116.726562 285.546875 117.695312 C 286.023438 118.363281 286.511719 119.023438 287 119.675781 L 288.527344 120.519531 C 291.398438 122.109375 294.285156 123.800781 297.359375 125.683594 C 304.433594 129.429688 311.167969 133.960938 317.304688 139.105469 L 317.53125 139.265625 C 318.269531 139.800781 319 140.332031 319.730469 140.871094 C 331.265625 149.386719 340.355469 156.835938 348.335938 164.316406 C 354.484375 170.074219 361.453125 176.605469 365.683594 184.460938 C 366.3125 185.632812 366.347656 187.007812 365.78125 188.148438 " fill-opacity="1" fill-rule="nonzero"/></g></g></g></svg>