<svg xmlns="http://www.w3.org/2000/svg" xmlns:xlink="http://www.w3.org/1999/xlink" width="500" zoomAndPan="magnify" viewBox="0 0 375 374.999991" height="500" preserveAspectRatio="xMidYMid meet" version="1.0"><defs><clipPath id="395e626500"><path d="M 31.609375 42.085938 L 343 42.085938 L 343 337.585938 L 31.609375 337.585938 Z M 31.609375 42.085938 " clip-rule="nonzero"/></clipPath></defs><g clip-path="url(#395e626500)"><path fill="#000000" d="M 224.941406 100.5 L 181.859375 98.566406 C 181.472656 98.542969 181.089844 98.472656 180.710938 98.351562 C 178.484375 97.617188 177.273438 95.210938 178.003906 92.984375 L 181.175781 83.488281 C 181.320312 82.980469 181.5625 82.496094 181.910156 82.054688 L 211.382812 44.253906 C 211.976562 43.414062 212.886719 42.792969 213.972656 42.5625 C 216.273438 42.085938 218.527344 43.5625 219.007812 45.863281 L 229.292969 95.378906 C 229.363281 95.722656 229.394531 96.070312 229.375 96.429688 C 229.273438 98.777344 227.292969 100.601562 224.941406 100.5 Z M 269.058594 138.492188 L 238.1875 107.621094 C 237.789062 107.207031 237.460938 106.710938 237.234375 106.136719 C 236.398438 103.949219 237.484375 101.480469 239.671875 100.644531 L 302.5 76.28125 C 303.699219 75.746094 305.136719 75.777344 306.359375 76.484375 C 308.398438 77.660156 309.089844 80.269531 307.914062 82.300781 L 275.894531 137.375 C 275.6875 137.777344 275.421875 138.15625 275.09375 138.492188 C 273.425781 140.160156 270.722656 140.160156 269.058594 138.492188 Z M 170.828125 101.453125 L 135.8125 116.195312 L 135.183594 117.765625 C 134.5625 119.308594 133.0625 120.402344 131.300781 120.433594 C 128.957031 120.46875 127.023438 118.59375 126.984375 116.25 L 125.707031 48.082031 C 125.6875 46.800781 126.238281 45.535156 127.316406 44.683594 C 129.15625 43.226562 131.832031 43.542969 133.289062 45.382812 L 172.417969 94.78125 C 172.691406 95.105469 172.921875 95.472656 173.097656 95.882812 C 174.003906 98.046875 172.988281 100.539062 170.828125 101.453125 Z M 241.964844 276.613281 L 271.375 245.28125 C 271.90625 244.648438 272.625 244.15625 273.476562 243.914062 C 275.746094 243.273438 278.101562 244.585938 278.746094 246.847656 L 297.398438 311.804688 C 297.722656 312.984375 297.546875 314.300781 296.796875 315.390625 C 295.464844 317.320312 292.8125 317.800781 290.878906 316.46875 L 242.773438 283.121094 L 233.171875 333.691406 C 232.742188 336 230.511719 337.519531 228.207031 337.09375 C 227.210938 336.90625 226.367188 336.382812 225.757812 335.675781 L 188.453125 291.945312 C 186.925781 290.15625 187.136719 287.472656 188.917969 285.941406 C 189.554688 285.402344 190.292969 285.078125 191.058594 284.964844 L 238 277.886719 C 239.0625 277.726562 240.09375 277.972656 240.933594 278.515625 C 241.101562 277.824219 241.445312 277.167969 241.964844 276.613281 Z M 129.957031 121.730469 L 170.269531 103.203125 C 170.832031 102.949219 171.460938 102.804688 172.121094 102.820312 L 232.574219 104.210938 C 233.753906 104.136719 234.960938 104.546875 235.863281 105.449219 L 266.734375 136.316406 C 267.164062 136.773438 267.515625 137.320312 267.734375 137.953125 L 283.769531 184.09375 L 279.417969 144.285156 C 279.355469 143.664062 279.425781 143.019531 279.648438 142.390625 C 280.449219 140.179688 282.894531 139.039062 285.097656 139.835938 L 339.761719 159.773438 C 340.835938 160.164062 341.75 160.984375 342.230469 162.125 C 343.140625 164.285156 342.125 166.777344 339.964844 167.691406 L 290.058594 188.804688 C 289.617188 189.023438 289.125 189.171875 288.605469 189.226562 C 286.515625 189.453125 284.621094 188.121094 284.0625 186.171875 L 284.0625 208.644531 L 288.5 192.429688 C 288.667969 191.675781 289.039062 190.960938 289.617188 190.371094 C 291.265625 188.699219 293.960938 188.675781 295.632812 190.320312 L 341.296875 235.339844 C 342.046875 236.078125 342.527344 237.097656 342.5625 238.234375 C 342.632812 240.582031 340.792969 242.546875 338.449219 242.621094 L 279.929688 244.550781 C 279.519531 244.5625 279.09375 244.519531 278.671875 244.398438 C 276.410156 243.785156 275.082031 241.449219 275.6875 239.183594 L 278.292969 229.683594 L 259.449219 255.660156 C 259.132812 256.097656 258.734375 256.480469 258.25 256.78125 L 227.378906 276.070312 C 226.839844 276.402344 226.214844 276.625 225.546875 276.6875 L 186.863281 280.523438 C 186.257812 280.617188 185.625 280.578125 185.003906 280.398438 L 157.664062 272.175781 L 183.71875 284.195312 C 185.855469 285.183594 186.789062 287.714844 185.800781 289.851562 C 185.382812 290.753906 184.691406 291.4375 183.871094 291.851562 L 127.183594 325.121094 C 125.160156 326.308594 122.554688 325.625 121.367188 323.605469 C 120.839844 322.699219 120.675781 321.679688 120.84375 320.722656 L 130.546875 265.5625 C 130.828125 263.941406 131.996094 262.691406 133.460938 262.226562 L 126.949219 255.152344 C 127.394531 256.632812 127.015625 258.304688 125.824219 259.445312 C 125.550781 259.714844 125.246094 259.929688 124.921875 260.113281 L 72.191406 289.050781 C 70.128906 290.179688 67.542969 289.421875 66.40625 287.363281 C 65.753906 286.171875 65.730469 284.804688 66.226562 283.640625 L 88.667969 223.378906 C 89.484375 221.179688 91.9375 220.0625 94.136719 220.882812 C 94.753906 221.113281 95.289062 221.472656 95.71875 221.917969 L 111.398438 238.265625 L 108.363281 234.972656 C 108.046875 234.609375 107.773438 234.199219 107.582031 233.734375 L 96.320312 207.054688 L 96.898438 214.242188 C 97.085938 216.585938 95.332031 218.644531 92.984375 218.824219 L 36.140625 220.109375 C 33.796875 220.160156 31.855469 218.296875 31.808594 215.945312 C 31.78125 214.546875 32.433594 213.300781 33.460938 212.496094 L 86.835938 171.339844 C 88.695312 169.90625 91.367188 170.246094 92.800781 172.105469 C 93.324219 172.78125 93.617188 173.570312 93.671875 174.375 L 94.699219 186.964844 L 100.839844 164.304688 L 101.039062 163.746094 L 100.550781 164.390625 C 99.148438 166.269531 96.480469 166.648438 94.605469 165.242188 C 94.355469 165.058594 94.136719 164.859375 93.945312 164.632812 L 50.851562 115.125 C 49.300781 113.347656 49.488281 110.65625 51.265625 109.109375 C 52.339844 108.167969 53.753906 107.871094 55.046875 108.175781 L 124.960938 121.644531 C 126.234375 121.886719 127.265625 122.675781 127.863281 123.71875 L 128.191406 123.230469 C 128.613281 122.59375 129.210938 122.074219 129.957031 121.730469 Z M 129.957031 121.730469 " fill-opacity="1" fill-rule="evenodd"/></g><path fill="#ffffff" d="M 182.039062 94.316406 C 196.402344 94.960938 210.765625 95.601562 225.128906 96.25 C 221.699219 79.742188 218.269531 63.234375 214.835938 46.726562 C 204.980469 59.375 195.117188 72.023438 185.257812 84.671875 C 184.183594 87.890625 183.113281 91.101562 182.039062 94.316406 Z M 128.074219 182.828125 C 129.367188 173.601562 130.644531 164.390625 131.9375 155.167969 C 137.507812 148.523438 143.082031 141.878906 148.65625 135.238281 C 158.304688 132.234375 167.949219 129.234375 177.59375 126.230469 C 186.171875 126.449219 194.742188 126.660156 203.320312 126.878906 C 211.890625 129.449219 220.46875 132.015625 229.042969 134.589844 C 235.6875 141.878906 242.332031 149.164062 248.976562 156.457031 C 250.261719 168.246094 251.550781 180.035156 252.835938 191.824219 C 250.050781 202.117188 247.265625 212.402344 244.476562 222.695312 C 241.476562 229.558594 238.472656 236.414062 235.476562 243.273438 C 229.042969 245.636719 222.613281 247.992188 216.179688 250.347656 C 204.390625 250.992188 192.597656 251.632812 180.808594 252.28125 C 168.808594 251.207031 156.800781 250.136719 144.796875 249.0625 C 140.726562 241.34375 136.648438 233.628906 132.578125 225.910156 C 132.152344 218.625 131.722656 211.335938 131.292969 204.042969 C 133.4375 196.324219 135.582031 188.613281 137.726562 180.894531 C 142.441406 172.105469 147.152344 163.316406 151.871094 154.527344 C 160.875 151.957031 169.875 149.382812 178.882812 146.808594 C 188.738281 146.808594 198.601562 146.808594 208.464844 146.808594 C 216.609375 149.382812 224.757812 151.957031 232.902344 154.527344 C 235.898438 162.671875 238.902344 170.820312 241.902344 178.964844 C 239.976562 189.679688 238.050781 200.402344 236.117188 211.125 C 233.117188 215.835938 230.113281 220.550781 227.117188 225.269531 C 221.324219 228.699219 215.539062 232.132812 209.753906 235.554688 C 199.03125 233.839844 188.316406 232.132812 177.59375 230.414062 C 172.238281 224.839844 166.875 219.265625 161.515625 213.691406 C 162.375 205.976562 163.230469 198.257812 164.089844 190.539062 C 166.664062 185.609375 169.234375 180.683594 171.808594 175.746094 C 177.59375 174.25 183.382812 172.746094 189.175781 171.246094 C 196.246094 174.679688 203.320312 178.109375 210.394531 181.539062 C 211.46875 185.820312 212.539062 190.109375 213.613281 194.398438 C 210.820312 199.328125 208.039062 204.261719 205.246094 209.191406 C 202.671875 210.476562 200.105469 211.765625 197.535156 213.050781 C 193.675781 211.976562 189.816406 210.90625 185.953125 209.832031 C 186.601562 209.402344 187.242188 208.980469 187.886719 208.550781 C 190.890625 208.332031 193.886719 208.121094 196.886719 207.90625 C 199.242188 206.1875 201.605469 204.472656 203.960938 202.757812 C 204.605469 200.832031 205.246094 198.90625 205.894531 196.972656 C 205.675781 192.902344 205.464844 188.824219 205.246094 184.753906 C 202.246094 182.398438 199.242188 180.035156 196.246094 177.679688 C 191.742188 177.679688 187.242188 177.679688 182.742188 177.679688 C 180.378906 178.320312 178.023438 178.964844 175.667969 179.605469 C 172.019531 186.039062 168.378906 192.472656 164.730469 198.90625 C 165.804688 204.472656 166.875 210.046875 167.949219 215.625 C 170.734375 219.476562 173.523438 223.335938 176.308594 227.195312 C 181.457031 228.269531 186.601562 229.339844 191.742188 230.414062 C 194.960938 230.414062 198.175781 230.414062 201.386719 230.414062 C 208.894531 228.054688 216.398438 225.699219 223.898438 223.335938 C 225.824219 218.40625 227.757812 213.480469 229.683594 208.550781 C 231.398438 201.472656 233.117188 194.398438 234.832031 187.324219 C 234.191406 181.109375 233.542969 174.890625 232.902344 168.675781 C 230.761719 165.460938 228.617188 162.242188 226.472656 159.027344 C 222.402344 156.671875 218.324219 154.3125 214.253906 151.957031 C 203.109375 151.957031 191.957031 151.957031 180.808594 151.957031 C 174.382812 153.882812 167.949219 155.816406 161.515625 157.742188 C 154.65625 163.746094 147.800781 169.75 140.9375 175.746094 C 140.082031 183.253906 139.222656 190.757812 138.367188 198.257812 C 137.9375 205.332031 137.507812 212.402344 137.078125 219.476562 C 139.011719 226.554688 140.9375 233.628906 142.871094 240.703125 C 147.582031 243.0625 152.300781 245.417969 157.015625 247.773438 C 164.730469 247.773438 172.449219 247.773438 180.167969 247.773438 C 188.527344 248.203125 196.886719 248.632812 205.246094 249.0625 C 214.464844 245.203125 223.679688 241.34375 232.902344 237.488281 C 237.621094 226.128906 242.332031 214.765625 247.050781 203.40625 C 246.402344 195.902344 245.761719 188.394531 245.125 180.894531 C 244.265625 172.960938 243.40625 165.03125 242.550781 157.101562 C 238.472656 151.097656 234.402344 145.09375 230.324219 139.089844 C 221.753906 137.164062 213.183594 135.238281 204.605469 133.304688 C 195.601562 133.09375 186.601562 132.875 177.59375 132.664062 C 167.519531 136.523438 157.445312 140.375 147.371094 144.234375 C 142.652344 150.027344 137.9375 155.816406 133.21875 161.601562 C 133.007812 166.535156 132.789062 171.464844 132.578125 176.394531 C 131.292969 181.320312 130.007812 186.25 128.71875 191.1875 C 128.507812 188.394531 128.289062 185.609375 128.074219 182.828125 Z M 172.039062 107.070312 C 158.601562 113.246094 145.160156 119.425781 131.722656 125.597656 C 122.796875 138.867188 113.878906 152.136719 104.953125 165.40625 C 102.136719 175.796875 99.320312 186.183594 96.511719 196.566406 C 101.503906 208.40625 106.5 220.246094 111.496094 232.085938 C 120.734375 242.117188 129.96875 252.148438 139.203125 262.179688 C 154.878906 266.890625 170.546875 271.601562 186.222656 276.316406 C 199.1875 275.027344 212.15625 273.742188 225.128906 272.453125 C 235.421875 266.023438 245.707031 259.597656 256 253.164062 C 263.929688 242.230469 271.859375 231.296875 279.792969 220.367188 C 279.792969 208.792969 279.792969 197.214844 279.792969 185.636719 C 274.433594 170.203125 269.070312 154.769531 263.710938 139.332031 C 253.425781 129.046875 243.132812 118.753906 232.847656 108.46875 C 212.574219 108.003906 192.308594 107.535156 172.039062 107.070312 Z M 274.644531 248.015625 C 264.789062 258.519531 254.925781 269.023438 245.0625 279.527344 C 261.140625 290.679688 277.21875 301.820312 293.296875 312.972656 C 287.082031 291.316406 280.859375 269.671875 274.644531 248.015625 Z M 191.683594 289.171875 C 207.335938 286.816406 222.984375 284.460938 238.632812 282.101562 C 235.421875 299.039062 232.203125 315.972656 228.988281 332.902344 C 216.550781 318.328125 204.121094 303.753906 191.683594 289.171875 Z M 134.75 266.296875 C 150.480469 273.550781 166.210938 280.808594 181.933594 288.066406 C 162.964844 299.191406 144.003906 310.324219 125.035156 321.457031 C 128.273438 303.070312 131.511719 284.679688 134.75 266.296875 Z M 92.652344 224.867188 C 102.726562 235.371094 112.800781 245.878906 122.878906 256.375 C 105.292969 266.023438 87.71875 275.667969 70.140625 285.320312 C 77.644531 265.164062 85.144531 245.015625 92.652344 224.867188 Z M 292.652344 193.355469 C 288.367188 209.003906 284.078125 224.652344 279.792969 240.304688 C 299.300781 239.65625 318.804688 239.015625 338.3125 238.371094 C 323.09375 223.367188 307.871094 208.363281 292.652344 193.355469 Z M 283.652344 143.839844 C 285.148438 157.554688 286.652344 171.277344 288.152344 184.996094 C 304.871094 177.921875 321.59375 170.84375 338.3125 163.777344 C 320.089844 157.125 301.875 150.484375 283.652344 143.839844 Z M 89.433594 174.703125 C 90.507812 187.996094 91.578125 201.285156 92.652344 214.578125 C 73.785156 215.007812 54.921875 215.429688 36.058594 215.867188 C 53.851562 202.144531 71.640625 188.425781 89.433594 174.703125 Z M 124.164062 125.828125 C 115.160156 137.835938 106.160156 149.835938 97.152344 161.84375 C 82.789062 145.335938 68.425781 128.828125 54.0625 112.320312 C 77.433594 116.828125 100.796875 121.328125 124.164062 125.828125 Z M 132.523438 112.96875 C 144.742188 107.820312 156.960938 102.675781 169.179688 97.535156 C 156.105469 81.027344 143.027344 64.519531 129.949219 48.011719 C 130.378906 70.734375 130.808594 93.457031 131.238281 116.179688 C 131.664062 115.113281 132.09375 114.042969 132.523438 112.96875 Z M 241.207031 104.609375 C 251.492188 114.894531 261.785156 125.1875 272.070312 135.480469 C 282.792969 117.039062 293.515625 98.605469 304.230469 80.171875 C 283.222656 88.3125 262.214844 96.460938 241.207031 104.609375 Z M 241.207031 104.609375 " fill-opacity="1" fill-rule="evenodd"/></svg>