<svg xmlns="http://www.w3.org/2000/svg" xmlns:xlink="http://www.w3.org/1999/xlink" width="500" zoomAndPan="magnify" viewBox="0 0 375 374.999991" height="500" preserveAspectRatio="xMidYMid meet" version="1.0"><defs><clipPath id="749e9a3f4e"><path d="M 37.5 176 L 45 176 L 45 199 L 37.5 199 Z M 37.5 176 " clip-rule="nonzero"/></clipPath><clipPath id="d15f13c8bc"><path d="M 106 122.722656 L 114 122.722656 L 114 252.472656 L 106 252.472656 Z M 106 122.722656 " clip-rule="nonzero"/></clipPath></defs><g clip-path="url(#749e9a3f4e)"><path fill="#ffffff" d="M 41 198.933594 C 39.066406 198.933594 37.5 197.367188 37.5 195.433594 L 37.5 179.558594 C 37.5 177.621094 39.066406 176.054688 41 176.054688 C 42.933594 176.054688 44.503906 177.621094 44.503906 179.558594 L 44.503906 195.433594 C 44.503906 197.367188 42.933594 198.933594 41 198.933594 Z M 41 198.933594 " fill-opacity="1" fill-rule="nonzero"/></g><path fill="#ffffff" d="M 58.300781 221.007812 C 56.367188 221.007812 54.800781 219.441406 54.800781 217.507812 L 54.800781 157.484375 C 54.800781 155.550781 56.367188 153.984375 58.300781 153.984375 C 60.234375 153.984375 61.804688 155.550781 61.804688 157.484375 L 61.804688 217.507812 C 61.804688 219.441406 60.234375 221.007812 58.300781 221.007812 Z M 58.300781 221.007812 " fill-opacity="1" fill-rule="nonzero"/><path fill="#ffffff" d="M 75.601562 217.257812 C 73.667969 217.257812 72.101562 215.6875 72.101562 213.753906 L 72.101562 161.234375 C 72.101562 159.300781 73.667969 157.734375 75.601562 157.734375 C 77.535156 157.734375 79.105469 159.300781 79.105469 161.234375 L 79.105469 213.753906 C 79.105469 215.6875 77.535156 217.257812 75.601562 217.257812 Z M 75.601562 217.257812 " fill-opacity="1" fill-rule="nonzero"/><path fill="#ffffff" d="M 92.902344 224.664062 C 90.96875 224.664062 89.402344 223.097656 89.402344 221.164062 L 89.402344 153.828125 C 89.402344 151.894531 90.96875 150.324219 92.902344 150.324219 C 94.835938 150.324219 96.40625 151.894531 96.40625 153.828125 L 96.40625 221.164062 C 96.40625 223.097656 94.835938 224.664062 92.902344 224.664062 Z M 92.902344 224.664062 " fill-opacity="1" fill-rule="nonzero"/><g clip-path="url(#d15f13c8bc)"><path fill="#ffffff" d="M 110.203125 252.144531 C 108.269531 252.144531 106.703125 250.578125 106.703125 248.644531 L 106.703125 126.347656 C 106.703125 124.414062 108.269531 122.847656 110.203125 122.847656 C 112.136719 122.847656 113.703125 124.414062 113.703125 126.347656 L 113.703125 248.644531 C 113.703125 250.578125 112.136719 252.144531 110.203125 252.144531 Z M 110.203125 252.144531 " fill-opacity="1" fill-rule="nonzero"/></g><path fill="#ffffff" d="M 127.503906 241.640625 C 125.570312 241.640625 124.003906 240.074219 124.003906 238.140625 L 124.003906 136.851562 C 124.003906 134.917969 125.570312 133.351562 127.503906 133.351562 C 129.4375 133.351562 131.003906 134.917969 131.003906 136.851562 L 131.003906 238.140625 C 131.003906 240.074219 129.4375 241.640625 127.503906 241.640625 Z M 127.503906 241.640625 " fill-opacity="1" fill-rule="nonzero"/><path fill="#ffffff" d="M 144.804688 236.949219 C 142.871094 236.949219 141.300781 235.382812 141.300781 233.449219 L 141.300781 141.542969 C 141.300781 139.605469 142.871094 138.039062 144.804688 138.039062 C 146.738281 138.039062 148.304688 139.605469 148.304688 141.542969 L 148.304688 233.449219 C 148.304688 235.382812 146.738281 236.949219 144.804688 236.949219 Z M 144.804688 236.949219 " fill-opacity="1" fill-rule="nonzero"/><path fill="#ffffff" d="M 162.105469 221.195312 C 160.171875 221.195312 158.601562 219.628906 158.601562 217.695312 L 158.601562 157.296875 C 158.601562 155.363281 160.171875 153.796875 162.105469 153.796875 C 164.039062 153.796875 165.605469 155.363281 165.605469 157.296875 L 165.605469 217.695312 C 165.605469 219.628906 164.039062 221.195312 162.105469 221.195312 Z M 162.105469 221.195312 " fill-opacity="1" fill-rule="nonzero"/><path fill="#ffffff" d="M 179.40625 207.691406 C 177.472656 207.691406 175.902344 206.121094 175.902344 204.1875 L 175.902344 170.800781 C 175.902344 168.867188 177.472656 167.300781 179.40625 167.300781 C 181.339844 167.300781 182.90625 168.867188 182.90625 170.800781 L 182.90625 204.1875 C 182.90625 206.121094 181.339844 207.691406 179.40625 207.691406 Z M 179.40625 207.691406 " fill-opacity="1" fill-rule="nonzero"/><path fill="#ffffff" d="M 196.707031 201.40625 C 194.773438 201.40625 193.203125 199.839844 193.203125 197.90625 L 193.203125 177.085938 C 193.203125 175.152344 194.773438 173.582031 196.707031 173.582031 C 198.640625 173.582031 200.207031 175.152344 200.207031 177.085938 L 200.207031 197.90625 C 200.207031 199.839844 198.640625 201.40625 196.707031 201.40625 Z M 196.707031 201.40625 " fill-opacity="1" fill-rule="nonzero"/><path fill="#ffffff" d="M 214.007812 201.40625 C 212.070312 201.40625 210.503906 199.839844 210.503906 197.90625 L 210.503906 177.085938 C 210.503906 175.152344 212.070312 173.582031 214.007812 173.582031 C 215.941406 173.582031 217.507812 175.152344 217.507812 177.085938 L 217.507812 197.90625 C 217.507812 199.839844 215.941406 201.40625 214.007812 201.40625 Z M 214.007812 201.40625 " fill-opacity="1" fill-rule="nonzero"/><path fill="#ffffff" d="M 231.304688 234.699219 C 229.371094 234.699219 227.804688 233.132812 227.804688 231.199219 L 227.804688 143.792969 C 227.804688 141.859375 229.371094 140.289062 231.304688 140.289062 C 233.238281 140.289062 234.808594 141.859375 234.808594 143.792969 L 234.808594 231.199219 C 234.808594 233.132812 233.238281 234.699219 231.304688 234.699219 Z M 231.304688 234.699219 " fill-opacity="1" fill-rule="nonzero"/><path fill="#ffffff" d="M 248.605469 246.421875 C 246.671875 246.421875 245.105469 244.855469 245.105469 242.921875 L 245.105469 132.070312 C 245.105469 130.136719 246.671875 128.566406 248.605469 128.566406 C 250.539062 128.566406 252.109375 130.136719 252.109375 132.070312 L 252.109375 242.921875 C 252.109375 244.855469 250.539062 246.421875 248.605469 246.421875 Z M 248.605469 246.421875 " fill-opacity="1" fill-rule="nonzero"/><path fill="#ffffff" d="M 265.90625 239.34375 C 263.972656 239.34375 262.40625 237.773438 262.40625 235.839844 L 262.40625 139.148438 C 262.40625 137.214844 263.972656 135.648438 265.90625 135.648438 C 267.839844 135.648438 269.410156 137.214844 269.410156 139.148438 L 269.410156 235.839844 C 269.410156 237.773438 267.839844 239.34375 265.90625 239.34375 Z M 265.90625 239.34375 " fill-opacity="1" fill-rule="nonzero"/><path fill="#ffffff" d="M 283.207031 228.769531 C 281.273438 228.769531 279.707031 227.199219 279.707031 225.265625 L 279.707031 149.722656 C 279.707031 147.789062 281.273438 146.222656 283.207031 146.222656 C 285.140625 146.222656 286.710938 147.789062 286.710938 149.722656 L 286.710938 225.265625 C 286.710938 227.199219 285.140625 228.769531 283.207031 228.769531 Z M 283.207031 228.769531 " fill-opacity="1" fill-rule="nonzero"/><path fill="#ffffff" d="M 300.507812 249.648438 C 298.574219 249.648438 297.007812 248.078125 297.007812 246.144531 L 297.007812 128.84375 C 297.007812 126.910156 298.574219 125.34375 300.507812 125.34375 C 302.441406 125.34375 304.007812 126.910156 304.007812 128.84375 L 304.007812 246.144531 C 304.007812 248.078125 302.441406 249.648438 300.507812 249.648438 Z M 300.507812 249.648438 " fill-opacity="1" fill-rule="nonzero"/><path fill="#ffffff" d="M 317.808594 218.492188 C 315.875 218.492188 314.308594 216.925781 314.308594 214.992188 L 314.308594 160 C 314.308594 158.066406 315.875 156.496094 317.808594 156.496094 C 319.742188 156.496094 321.308594 158.066406 321.308594 160 L 321.308594 214.992188 C 321.308594 216.925781 319.742188 218.492188 317.808594 218.492188 Z M 317.808594 218.492188 " fill-opacity="1" fill-rule="nonzero"/><path fill="#ffffff" d="M 335.109375 206.976562 C 333.175781 206.976562 331.605469 205.40625 331.605469 203.472656 L 331.605469 171.515625 C 331.605469 169.582031 333.175781 168.015625 335.109375 168.015625 C 337.042969 168.015625 338.609375 169.582031 338.609375 171.515625 L 338.609375 203.472656 C 338.609375 205.40625 337.042969 206.976562 335.109375 206.976562 Z M 335.109375 206.976562 " fill-opacity="1" fill-rule="nonzero"/></svg>