<svg xmlns="http://www.w3.org/2000/svg" xmlns:xlink="http://www.w3.org/1999/xlink" width="500" zoomAndPan="magnify" viewBox="0 0 375 374.999991" height="500" preserveAspectRatio="xMidYMid meet" version="1.0"><defs><clipPath id="386fb58285"><path d="M 153.40625 13 L 221.65625 13 L 221.65625 362.152344 L 153.40625 362.152344 Z M 153.40625 13 " clip-rule="nonzero"/></clipPath></defs><g clip-path="url(#386fb58285)"><path fill="#ffffff" d="M 186.113281 356.671875 C 184.742188 355.011719 183.375 353.351562 182.007812 351.691406 C 180.878906 349.3125 180.171875 347.324219 179.035156 345.183594 C 176.480469 340.371094 174.574219 335.960938 173.714844 331.238281 C 173.167969 328.210938 173.042969 325.058594 172.074219 322.234375 C 171.03125 319.195312 170.050781 316.207031 169.25 313.011719 C 168.417969 309.691406 168.851562 306.003906 168.402344 302.554688 C 167.933594 298.996094 167.671875 295.5 167.984375 292.140625 C 166.871094 289.777344 167.695312 287.601562 167.984375 285.371094 C 168.039062 284.941406 167.535156 284.457031 167.460938 284.015625 C 167.445312 279.75 168.933594 275.417969 167.921875 271.285156 C 167.445312 269.332031 166.792969 267.886719 166.789062 266.042969 C 166.785156 264.128906 167.324219 262.371094 167.648438 260.554688 C 167.980469 258.675781 167.835938 257.066406 167.855469 255.003906 C 167.875 252.394531 169 249.828125 169.15625 247.164062 C 169.199219 246.402344 168.894531 245.679688 168.832031 244.835938 C 168.558594 240.890625 169.296875 236.828125 169.433594 232.996094 C 169.484375 231.328125 169.941406 229.769531 169.890625 228.234375 C 169.855469 227.226562 169.488281 226.257812 169.414062 225.238281 C 169.261719 223.152344 169.519531 221.027344 169.035156 218.980469 C 169.980469 215.503906 169.511719 211.890625 170.054688 208.375 C 169.046875 205.242188 170.226562 201.96875 169.890625 198.753906 C 169.757812 197.441406 169.121094 196.152344 168.851562 194.832031 C 168.574219 193.503906 168.777344 192.175781 168.578125 190.875 C 168.460938 190.125 168.105469 189.535156 168.015625 188.746094 C 167.4375 183.613281 166.585938 178.269531 165.148438 173.183594 C 164.226562 172.746094 162.953125 172.648438 161.707031 172.632812 C 160.554688 172.617188 159.160156 172.386719 158.222656 172.515625 C 157.011719 172.683594 155.960938 173.707031 155.015625 172.96875 C 153.5 171.789062 153.84375 167.871094 154.636719 166.710938 C 156.480469 164.003906 159.855469 164.347656 162.027344 164.800781 C 166.316406 162.417969 167.570312 158.476562 170.222656 155.65625 C 172.5 155.835938 174.199219 154.597656 176.273438 154.054688 C 176.902344 153.890625 177.777344 154.003906 178.578125 153.949219 C 180.382812 153.832031 181.835938 153.554688 183.445312 153.324219 C 184.363281 153.195312 185.085938 153.285156 185.84375 153.339844 C 187.394531 153.445312 189.054688 153.425781 190.621094 153.582031 C 192.074219 153.726562 193.96875 154.746094 195.230469 153.367188 C 194.789062 152.40625 193.539062 152.796875 192.675781 152.6875 C 191.773438 152.574219 190.808594 152.265625 189.882812 152.199219 C 188.039062 152.066406 185.863281 151.566406 184.136719 151.753906 C 182.449219 151.9375 180.816406 152.550781 179.132812 152.695312 C 177.46875 152.832031 175.753906 152.195312 174.136719 152.429688 C 172.808594 152.617188 171.566406 153.335938 170.234375 153.253906 C 170.976562 150.527344 171.164062 147.738281 171.144531 144.933594 C 174.6875 142.539062 178.074219 141.75 181.375 141.878906 C 181.773438 141.550781 182.164062 141.226562 182.558594 140.902344 C 184.722656 140.644531 186.976562 141.097656 189.195312 141.210938 C 191.382812 141.328125 193.90625 141.390625 195.714844 140.421875 C 193.769531 139.730469 191.570312 140.03125 189.105469 139.890625 C 186.925781 139.769531 184.226562 138.605469 182.199219 139.011719 C 181.644531 139.121094 181.152344 139.570312 180.601562 139.730469 C 179.578125 140.023438 178.40625 139.632812 177.316406 139.847656 C 175.214844 140.261719 173.457031 141.265625 171.394531 142.335938 C 171.101562 139.425781 171.324219 135.816406 170.9375 132.355469 C 170.816406 131.277344 170.488281 129.609375 170.9375 128.972656 C 171.832031 127.710938 174.167969 126.777344 175.4375 126.457031 C 177.40625 125.964844 180.019531 126.445312 182.539062 126.378906 C 186.246094 126.285156 189.351562 126.074219 192.578125 126.472656 C 193.597656 126.597656 194.519531 126.378906 195.390625 126.746094 C 194.425781 125.441406 192.316406 126.179688 190.996094 124.789062 C 184.40625 124.628906 176.980469 121.546875 170.617188 126.644531 C 169.609375 122.292969 170.257812 117.152344 170.335938 112.535156 C 174.839844 110.683594 178.886719 110.847656 183.179688 110.714844 C 185.308594 110.652344 187.566406 110.265625 189.4375 110.339844 C 190.464844 110.378906 191.445312 110.933594 192.425781 111.0625 C 194.453125 111.335938 196.464844 111.210938 198.429688 111.09375 C 196.601562 110.015625 194.449219 110.308594 192.429688 109.863281 C 191.480469 109.652344 190.558594 109.023438 189.582031 108.824219 C 185.898438 108.074219 182.058594 108.4375 178.25 108.605469 C 175.703125 108.71875 173.226562 109.382812 170.78125 110.179688 C 170.78125 106.722656 171.46875 102.386719 171.355469 98.550781 C 175.710938 97.78125 180.621094 98.507812 184.878906 97.5625 C 186.425781 97.222656 187.992188 96.582031 189.570312 96.488281 C 191.738281 96.355469 193.820312 97.46875 195.921875 97.429688 C 197.15625 97.835938 198.28125 99.386719 199.636719 98.550781 C 198.894531 97.789062 197.195312 97.542969 196.105469 96.679688 C 188.066406 95.101562 179.882812 95.085938 171.542969 96.609375 C 171.160156 93.65625 171.050781 89.789062 170.554688 86.46875 C 173.546875 85.761719 175.980469 83.949219 178.644531 82.988281 C 182.515625 81.585938 186.253906 81.683594 190.046875 81.359375 C 191.964844 81.195312 193.878906 81.15625 195.734375 81.25 C 197.667969 81.351562 199.4375 82.074219 201.339844 82.007812 C 197.082031 78.941406 192.449219 79.628906 187.691406 79.710938 C 186.242188 79.738281 184.585938 79.949219 182.96875 80.023438 C 181.328125 80.097656 179.421875 80.164062 178.222656 80.546875 C 175.453125 81.429688 173.367188 83.433594 170.546875 84.285156 C 169.820312 79.992188 170.03125 75.789062 170.023438 71.570312 C 172.265625 70.296875 174.574219 68.953125 176.816406 67.964844 C 179.371094 66.835938 182.296875 66.773438 185.050781 66.355469 C 187.933594 65.921875 192.003906 65.5625 194.414062 66.605469 C 194.796875 66.765625 195.21875 66.695312 195.597656 66.828125 C 196.398438 67.097656 197.140625 67.765625 198.035156 67.609375 C 196.746094 66.601562 195.328125 65.804688 193.894531 65.242188 C 191.15625 64.160156 187.546875 64.554688 184.664062 64.679688 C 183.730469 64.71875 182.773438 64.574219 181.832031 64.625 C 177.726562 64.839844 174.113281 66.972656 170.113281 69.5 C 169.40625 65.683594 170.164062 61.0625 169.90625 56.925781 C 172.714844 55.957031 174.953125 54.707031 177.5 54.054688 C 179.457031 53.550781 181.785156 54.011719 183.839844 54.011719 C 186.082031 54.003906 188.175781 54.039062 190.292969 53.867188 C 191.964844 55.042969 193.707031 55.476562 195.503906 55.355469 C 193.902344 54.476562 192.351562 53.625 190.710938 52.925781 C 188.890625 52.148438 186.386719 52.398438 184.125 52.183594 C 182.101562 51.984375 179.484375 51.496094 177.492188 51.871094 C 175.046875 52.332031 172.507812 54.09375 170.097656 54.980469 C 169.695312 52.101562 170.375 48.382812 169.953125 45.136719 C 172.523438 44.777344 174.492188 43.449219 176.835938 42.851562 C 181.921875 41.546875 187.414062 43.628906 192.128906 41.59375 C 190.796875 41.578125 189.582031 41.59375 188.316406 41.554688 C 186.96875 41.515625 185.800781 41.347656 184.417969 41.179688 C 179.53125 40.585938 175.199219 41.136719 170.054688 44.050781 C 169.796875 41.136719 168.695312 38.949219 167.460938 35.832031 C 167.117188 34.964844 166.90625 33.925781 166.515625 33.230469 C 166.105469 32.519531 165.460938 32.070312 165.164062 31.351562 C 163.875 28.21875 166.9375 23.445312 169.144531 20.707031 C 169.816406 20.152344 170.488281 19.601562 171.164062 19.046875 C 172.585938 18.746094 173.628906 17.824219 174.953125 17.121094 C 178.695312 15.128906 183.53125 14.445312 187.527344 13.527344 C 189.207031 13.140625 191.078125 13.375 193.117188 13.304688 C 194.753906 13.246094 197.554688 12.644531 198.785156 13.414062 C 200.128906 14.25 201.460938 16.808594 202.660156 17.386719 C 202.792969 17.546875 202.921875 17.703125 203.050781 17.863281 C 206.046875 21.953125 205.992188 25.984375 205.625 29.683594 C 205.492188 30.988281 204.824219 32.324219 204.675781 33.851562 C 204.40625 36.636719 204.914062 40.226562 205.609375 43.441406 C 206.332031 46.785156 206.976562 50.199219 207.503906 53.230469 C 208.605469 59.558594 208.007812 66.175781 208.265625 72.527344 C 208.800781 85.714844 209.039062 98.285156 207.960938 110.820312 C 207.148438 119.292969 206.535156 127.789062 205.398438 136.230469 C 205.507812 143.335938 207.285156 150.300781 208.710938 157.40625 C 209.523438 161.460938 210.03125 165.5625 213.859375 169.695312 C 214.992188 170.210938 215.859375 170.664062 217.472656 170.695312 C 218.46875 170.714844 220.164062 170.425781 220.71875 171.007812 C 221.5 171.832031 220.945312 173.683594 220.9375 174.414062 C 220.921875 175.433594 221.148438 176.988281 220.289062 177.738281 C 219.210938 178.671875 217.898438 177.800781 216.195312 178.324219 C 215.515625 178.53125 214.941406 179.070312 214.238281 179.335938 C 212.832031 179.871094 210.765625 179.941406 209.464844 181.277344 C 207.273438 177.957031 204.285156 176.902344 201.941406 175.53125 C 200.675781 174.789062 199.378906 174.039062 198.289062 173.757812 C 197.066406 173.441406 195.632812 173.765625 194.253906 173.695312 C 192.898438 173.625 191.605469 173.378906 190.261719 173.203125 C 187.558594 172.84375 184.703125 173.425781 182.210938 172.863281 C 181.039062 172.601562 180.074219 171.644531 178.71875 171.761719 C 177.742188 172 178.984375 172.308594 178.515625 172.726562 C 176.476562 172.746094 174.460938 172.492188 172.375 173.007812 C 174.976562 174.3125 177.851562 172.828125 180.496094 173.683594 C 183.25 176.6875 186.578125 179.230469 187.691406 182.890625 C 188.707031 186.25 188.484375 190.207031 188.691406 194.015625 C 188.898438 197.828125 188.808594 201.566406 188.609375 205.035156 C 188.1875 212.527344 187.769531 219.941406 187.683594 227.113281 C 187.636719 230.914062 188.3125 234.542969 188.472656 238.21875 C 188.628906 241.902344 188.410156 245.605469 188.390625 249.238281 C 188.359375 256.707031 189.058594 264.089844 189.847656 271.542969 C 190.589844 267.804688 190.074219 264.007812 189.726562 260.28125 C 189.023438 252.761719 189.757812 245.21875 189.929688 237.808594 C 190.015625 234.09375 189.535156 230.347656 189.597656 226.53125 C 189.777344 215.183594 191.105469 204.257812 190.335938 192.863281 C 190.121094 189.722656 190.246094 184.316406 188.820312 181.363281 C 187.363281 178.328125 184.722656 176.140625 182.546875 173.988281 C 187.226562 174.121094 192.71875 175.675781 197.769531 175.78125 C 201.230469 177.992188 204.859375 178.484375 208.160156 182.351562 C 205.570312 185.273438 206.648438 187.960938 206.730469 191.492188 C 206.894531 197.882812 207.007812 204.496094 206.433594 210.464844 C 205.828125 216.738281 206.242188 223.300781 205.917969 229.410156 C 205.804688 231.554688 205.480469 233.585938 205.3125 235.6875 C 205.144531 237.796875 205.371094 239.875 205.355469 242.023438 C 205.34375 244.128906 205.140625 246.25 205.183594 248.339844 C 205.226562 250.535156 205.6875 252.617188 205.660156 254.71875 C 205.628906 256.804688 205.1875 258.75 204.835938 260.972656 C 203.871094 267.164062 204.046875 273.753906 203.457031 279.835938 C 203.246094 282.011719 202.523438 284.035156 202.304688 286.167969 C 201.90625 289.9375 202.359375 293.835938 201.960938 297.601562 C 201.566406 301.414062 201.027344 305.132812 200.332031 308.90625 C 200.710938 311.078125 199.996094 313.25 199.703125 315.398438 C 199.101562 319.792969 198.652344 324.160156 197.898438 328.4375 C 197.515625 330.625 197.179688 332.808594 196.941406 335.003906 C 196.03125 343.25 196.101562 353.621094 193.507812 361.535156 C 193.539062 361.574219 193.570312 361.613281 193.605469 361.652344 C 193.332031 361.878906 193.054688 362.109375 192.777344 362.335938 C 190.492188 361.035156 188.429688 357.570312 186.113281 356.671875 Z M 169.601562 172.304688 C 168.546875 171.945312 167.4375 172.097656 166.359375 171.988281 C 167.167969 175.007812 167.679688 177.929688 168.3125 181.132812 C 169.171875 185.472656 169.351562 190.101562 170.191406 194.523438 C 170.417969 195.738281 170.605469 196.785156 170.742188 197.851562 C 171.082031 200.5 170.828125 203.59375 170.679688 206.46875 C 170.640625 206.832031 171.15625 207.246094 171.4375 207.632812 C 171.035156 210.253906 171.3125 212.976562 171.097656 215.683594 C 170.992188 217.066406 170.4375 218.394531 170.484375 219.769531 C 170.574219 222.390625 171.054688 224.957031 171.148438 227.585938 C 171.328125 232.308594 170.375 237.445312 170.378906 242.363281 C 170.382812 243.992188 170.5625 245.746094 170.453125 247.285156 C 170.28125 249.710938 169.304688 252.167969 169.195312 254.695312 C 169.105469 256.707031 169.335938 258.484375 168.964844 260.460938 C 168.625 262.277344 167.945312 264.285156 167.992188 266.046875 C 168.0625 268.621094 169.445312 271.164062 169.546875 273.730469 C 169.667969 276.988281 168.953125 280.289062 168.707031 283.585938 C 168.792969 284.03125 169.1875 284.507812 169.226562 284.945312 C 169.144531 287.195312 168.074219 289.347656 169.230469 291.714844 C 168.820312 296.386719 169.667969 301.308594 170.019531 306.207031 C 170.125 307.726562 169.957031 309.351562 170.113281 310.910156 C 170.253906 312.363281 170.941406 313.792969 171.328125 315.285156 C 171.628906 316.457031 171.734375 317.703125 172.074219 318.851562 C 172.449219 320.117188 173.097656 321.265625 173.472656 322.480469 C 174.585938 326.09375 174.339844 330.085938 175.34375 333.6875 C 176.554688 338.042969 179.523438 342.566406 181.449219 347.375 C 182.875 350.949219 185.140625 355.367188 189.402344 357.753906 C 189.695312 358.339844 189.777344 357.484375 189.402344 357.753906 C 186.179688 352.835938 183.40625 347.941406 181.628906 343.246094 C 181.144531 341.964844 180.753906 340.640625 180.25 339.398438 C 177.039062 331.4375 176.085938 323.207031 175.148438 315.324219 C 171.980469 308.703125 173.375 301.726562 172.5 295.195312 C 171.648438 288.796875 171.464844 282.695312 171.558594 276.652344 C 170.808594 273.777344 170.847656 270.980469 170.738281 268.164062 C 169.773438 265.960938 170.28125 263.902344 170.042969 261.765625 C 170.207031 261.136719 171.023438 261.21875 171.132812 260.667969 C 172.046875 255.027344 171.96875 249.335938 172.113281 243.730469 C 172.222656 239.503906 172.316406 235.289062 172.578125 231 C 172.65625 229.675781 173.066406 228.3125 173.191406 226.910156 C 173.511719 223.1875 173.230469 219.304688 172.878906 215.417969 C 172.535156 211.664062 172.414062 207.746094 172.230469 204 C 172.046875 200.144531 172.929688 196.382812 172.449219 192.667969 C 171.953125 188.8125 171.085938 185.015625 170.722656 181.144531 C 170.460938 178.441406 170.382812 175.28125 169.601562 172.304688 Z M 191.574219 344.207031 C 191.746094 335.667969 191.421875 326.972656 191.554688 318.328125 C 191.707031 308.753906 190.515625 299.21875 190.730469 289.53125 C 190.835938 284.742188 190.78125 279.894531 189.824219 275.140625 C 189.226562 275.339844 189.597656 276.574219 189.085938 277.144531 C 189.960938 286.296875 189.304688 295.757812 189.875 305.171875 C 190.164062 309.875 190.328125 314.519531 190.269531 319.1875 C 190.246094 321.484375 190.257812 323.871094 190.46875 326.195312 C 190.6875 328.566406 190.492188 330.90625 190.667969 333.203125 C 190.796875 334.882812 191.265625 336.648438 191.25 338.5 C 191.234375 340.460938 190.863281 342.335938 191.574219 344.207031 Z M 197.933594 238.582031 C 197.050781 238.464844 196.605469 238.203125 195.828125 238.921875 C 193.246094 241.300781 197.773438 245.515625 199.351562 241.992188 C 199.773438 241.054688 199.214844 240.089844 197.933594 238.582031 Z M 198.929688 232.78125 C 199.882812 232.265625 200.816406 229.800781 199.441406 228.570312 C 198.46875 227.695312 196.558594 228.160156 195.941406 228.671875 C 193.78125 230.449219 196.660156 234.007812 198.929688 232.78125 Z M 198.140625 211.519531 C 194.695312 213.664062 196.160156 218.472656 195.917969 222.117188 C 195.835938 223.289062 195.449219 224.117188 196.316406 224.777344 C 198.191406 226.199219 199.921875 222.59375 200.175781 221 C 200.394531 219.640625 200.019531 217.691406 199.890625 216.058594 C 199.734375 214.230469 199.882812 212.050781 198.140625 211.519531 Z M 199.582031 206.746094 C 199.546875 205.765625 199.976562 204.316406 199.128906 203.539062 C 197.339844 201.894531 194.589844 205.863281 197.414062 207.742188 C 198.09375 207.84375 198.816406 207.503906 199.582031 206.746094 Z M 196.101562 43.503906 C 196.207031 42.484375 194.507812 42.40625 193.84375 41.976562 C 194.15625 42.601562 195.421875 43.019531 196.101562 43.503906 Z M 195.226562 19.726562 C 194.3125 22.03125 197.050781 26.144531 199.253906 24.375 C 199.507812 24.171875 200.453125 22.414062 200.589844 21.878906 C 200.722656 21.328125 200.820312 19.460938 199.601562 18.511719 C 198.421875 17.589844 196.582031 18.574219 195.226562 19.726562 Z M 195.226562 19.726562 " fill-opacity="1" fill-rule="evenodd"/></g></svg>