<svg xmlns="http://www.w3.org/2000/svg" xmlns:xlink="http://www.w3.org/1999/xlink" width="500" zoomAndPan="magnify" viewBox="0 0 375 374.999991" height="500" preserveAspectRatio="xMidYMid meet" version="1.0"><defs><clipPath id="aa4cdc21dc"><path d="M 286 272 L 318.75 272 L 318.75 297 L 286 297 Z M 286 272 " clip-rule="nonzero"/></clipPath></defs><path fill="#ffffff" d="M 236.589844 115.53125 C 234.714844 165.242188 232.84375 171.484375 226.8125 220.78125 C 225.148438 233.882812 223.277344 246.78125 221.195312 259.882812 C 220.363281 265.5 217.867188 267.371094 212.460938 266.957031 C 207.261719 266.539062 205.386719 264.875 205.804688 258.636719 C 207.46875 236.796875 208.507812 214.746094 211.210938 192.90625 C 217.035156 144.234375 218.078125 138.617188 224.523438 90.152344 C 224.941406 87.65625 225.355469 84.953125 225.773438 82.457031 C 226.398438 78.503906 226.605469 74.136719 232.429688 74.554688 C 238.042969 75.175781 237.421875 79.753906 237.421875 83.289062 C 237.628906 92.027344 237.210938 100.554688 237.003906 109.289062 C 236.796875 111.371094 236.589844 113.449219 236.589844 115.53125 Z M 236.589844 115.53125 " fill-opacity="1" fill-rule="nonzero"/><path fill="#ffffff" d="M 260.09375 277.148438 C 253.230469 277.148438 251.355469 275.066406 254.0625 269.453125 C 263.628906 249.277344 273.199219 229.308594 283.390625 209.339844 C 286.300781 203.515625 290.460938 197.898438 298.367188 198.316406 C 303.773438 198.523438 305.230469 199.980469 303.148438 204.972656 C 295.660156 221.613281 287.757812 238.25 279.851562 254.683594 C 277.148438 260.300781 273.613281 265.5 270.285156 270.699219 C 267.789062 274.652344 264.667969 277.355469 260.09375 277.148438 Z M 260.09375 277.148438 " fill-opacity="1" fill-rule="nonzero"/><path fill="#ffffff" d="M 114.492188 270.910156 C 110.332031 276.316406 107.625 276.523438 104.714844 271.117188 C 94.316406 251.355469 84.121094 231.59375 74.347656 211.417969 C 71.433594 205.59375 69.5625 198.9375 74.554688 192.90625 C 78.089844 188.746094 80.171875 188.332031 82.667969 193.113281 C 91.402344 209.132812 99.929688 225.355469 108.25 241.789062 C 111.371094 247.195312 113.449219 253.019531 115.53125 258.84375 C 117.195312 263.210938 117.402344 267.371094 114.492188 270.910156 Z M 114.492188 270.910156 " fill-opacity="1" fill-rule="nonzero"/><g clip-path="url(#aa4cdc21dc)"><path fill="#ffffff" d="M 286.71875 292.332031 C 286.09375 291.707031 285.886719 290.460938 286.71875 289.835938 C 291.5 284.636719 295.871094 279.851562 300.652344 275.277344 C 304.398438 271.53125 312.925781 271.324219 317.085938 274.652344 C 318.125 275.484375 318.75 279.019531 318.125 279.644531 C 311.886719 285.050781 305.855469 290.667969 298.78125 294.828125 C 295.039062 297.117188 290.460938 296.078125 286.71875 292.332031 Z M 286.71875 292.332031 " fill-opacity="1" fill-rule="nonzero"/></g><path fill="#ffffff" d="M 76.011719 300.238281 C 75.386719 300.859375 74.136719 300.859375 73.515625 300.238281 C 68.730469 295.246094 63.945312 290.460938 59.785156 285.675781 C 56.25 281.722656 56.457031 273.195312 59.992188 269.246094 C 61.035156 268.203125 64.363281 267.789062 64.984375 268.414062 C 69.976562 274.859375 75.386719 281.308594 79.128906 288.589844 C 81.210938 292.125 79.960938 296.699219 76.011719 300.238281 Z M 76.011719 300.238281 " fill-opacity="1" fill-rule="nonzero"/><path fill="#ffffff" d="M 167.53125 246.570312 C 164.621094 212.875 164.410156 201.226562 161.082031 167.53125 C 159.835938 154.84375 157.132812 142.363281 155.050781 129.675781 C 153.59375 121.144531 140.492188 123.019531 140.492188 131.753906 C 140.492188 142.363281 140.90625 153.179688 141.53125 163.785156 C 142.988281 191.449219 142.363281 197.273438 145.898438 224.730469 C 146.105469 225.773438 146.105469 227.019531 146.316406 228.683594 C 148.394531 241.164062 151.308594 253.226562 155.882812 255.515625 C 156.300781 255.722656 156.507812 255.722656 156.921875 255.933594 C 164.621094 257.597656 168.15625 254.683594 167.53125 246.570312 Z M 167.53125 246.570312 " fill-opacity="1" fill-rule="nonzero"/></svg>