<svg xmlns="http://www.w3.org/2000/svg" xmlns:xlink="http://www.w3.org/1999/xlink" width="500" zoomAndPan="magnify" viewBox="0 0 375 374.999991" height="500" preserveAspectRatio="xMidYMid meet" version="1.0"><defs><clipPath id="0cd3191a4d"><path d="M 65.316406 56.25 L 309.816406 56.25 L 309.816406 318.75 L 65.316406 318.75 Z M 65.316406 56.25 " clip-rule="nonzero"/></clipPath></defs><g clip-path="url(#0cd3191a4d)"><path fill="#ffffff" d="M 260.878906 270.691406 C 279 270.691406 295.667969 264.910156 309.316406 255.144531 C 286.363281 293.253906 244.613281 318.726562 196.90625 318.726562 C 124.398438 318.726562 65.636719 259.976562 65.636719 187.523438 C 65.636719 115.011719 124.398438 56.25 196.90625 56.25 C 244.667969 56.25 286.476562 81.789062 309.371094 119.945312 C 295.738281 110.125 279.011719 104.34375 260.878906 104.34375 C 214.972656 104.34375 177.710938 141.605469 177.710938 187.511719 C 177.710938 233.429688 214.972656 270.691406 260.878906 270.691406 Z M 260.878906 270.691406 " fill-opacity="1" fill-rule="nonzero"/></g></svg>