<svg xmlns="http://www.w3.org/2000/svg" xmlns:xlink="http://www.w3.org/1999/xlink" width="500" zoomAndPan="magnify" viewBox="0 0 375 374.999991" height="500" preserveAspectRatio="xMidYMid meet" version="1.0"><defs><clipPath id="d3a6962f67"><path d="M 7 6 L 367.714844 6 L 367.714844 369.394531 L 7 369.394531 Z M 7 6 " clip-rule="nonzero"/></clipPath></defs><g clip-path="url(#d3a6962f67)"><path fill="#ffffff" d="M 79.289062 231.492188 C 79.152344 228.789062 79.332031 226.054688 79.53125 223.152344 C 79.667969 221.152344 79.808594 219.09375 79.835938 216.992188 L 79.835938 216.914062 C 79.835938 216.914062 79.835938 216.832031 79.835938 216.832031 C 79.738281 213.292969 79.710938 209.664062 79.695312 206.160156 C 79.648438 199.714844 79.601562 193.042969 79.117188 186.433594 L 79.117188 186.304688 C 78.902344 184.371094 78.621094 182.453125 78.34375 180.605469 C 77.984375 178.191406 77.640625 175.90625 77.488281 173.671875 C 77.378906 171.71875 77.308594 169.773438 77.226562 167.820312 C 77.0625 163.757812 76.902344 159.570312 76.46875 155.382812 C 76.386719 153.816406 76.324219 152.203125 76.261719 150.566406 C 76.074219 145.566406 75.875 140.398438 75.066406 135.464844 L 75.027344 135.277344 C 74.929688 134.789062 74.859375 134.097656 74.785156 133.367188 C 74.488281 130.394531 74.046875 125.902344 69.871094 123.785156 L 69.507812 123.625 C 67.691406 122.910156 66.222656 122.984375 65.105469 123.328125 C 64.050781 123.210938 63.042969 123.21875 62.125 123.21875 C 61.855469 123.21875 61.59375 123.21875 61.332031 123.21875 L 61.222656 123.21875 C 59.035156 123.261719 56.839844 123.328125 54.652344 123.390625 L 53.941406 123.40625 C 49.15625 123.390625 44.582031 124.117188 40.144531 124.855469 C 36.425781 125.46875 32.90625 126.054688 29.375 126.171875 C 27.941406 126.21875 26.511719 126.226562 25.078125 126.234375 C 23.683594 126.242188 22.261719 126.261719 20.820312 126.296875 C 19.171875 124.453125 16.371094 123.625 13.96875 124.28125 C 11.78125 124.882812 10.238281 126.566406 9.851562 128.792969 L 9.761719 129.324219 L 9.808594 129.863281 C 9.976562 131.699219 10.003906 133.753906 9.898438 135.859375 C 9.71875 140.886719 9.71875 145.964844 9.707031 150.871094 C 9.707031 158.363281 9.691406 166.109375 9.058594 173.636719 L 8.90625 176.382812 C 8.015625 192.835938 7.085938 209.851562 9.339844 226.574219 L 9.402344 226.925781 C 9.746094 228.429688 9.402344 231.195312 9.078125 233.867188 C 8.347656 239.804688 7.367188 247.871094 13.398438 251.753906 C 14.390625 252.609375 15.523438 253.183594 16.695312 253.425781 C 21.289062 254.398438 25.855469 254.328125 30.265625 254.253906 C 32.328125 254.21875 34.28125 254.183594 36.21875 254.253906 L 36.328125 254.253906 C 36.328125 254.253906 36.433594 254.253906 36.433594 254.253906 C 42.457031 254.140625 48.394531 255.164062 54.679688 256.246094 C 57.804688 256.777344 61.027344 257.335938 64.222656 257.730469 C 65.1875 257.859375 66.375 257.964844 67.679688 257.964844 C 70.96875 257.964844 74.929688 257.273438 77.566406 254.488281 C 78.980469 252.996094 80.484375 250.355469 79.820312 246.195312 C 79.855469 240.46875 79.695312 235.777344 79.296875 231.457031 Z M 63.871094 242.667969 C 62.078125 242.875 60.144531 242.820312 58.136719 242.765625 C 57.207031 242.738281 56.253906 242.710938 55.328125 242.710938 C 55.109375 242.710938 54.902344 242.710938 54.695312 242.710938 C 45.449219 242.710938 37.910156 242.378906 31.03125 241.695312 C 28.96875 241.460938 26.917969 241.199219 24.898438 240.929688 C 25.125 235.597656 25.277344 229.914062 24.988281 224.214844 L 24.988281 224.109375 C 24.65625 219.976562 24.945312 215.8125 25.25 211.421875 C 25.621094 206.054688 26.007812 200.515625 25.234375 194.914062 C 24.980469 192.84375 24.703125 190.773438 24.414062 188.699219 C 23.234375 179.976562 22.117188 171.726562 22.890625 163.414062 C 23.945312 155.175781 23.683594 146.953125 23.40625 138.996094 C 24.386719 138.929688 25.386719 138.878906 26.386719 138.859375 C 33.472656 138.949219 40.835938 138.5 48.933594 137.5 C 53.003906 136.996094 57 136.6875 61.53125 136.402344 C 61.585938 137.003906 61.640625 137.617188 61.683594 138.191406 C 61.835938 140.210938 61.820312 142.253906 61.792969 144.414062 C 61.773438 146.316406 61.753906 148.289062 61.863281 150.285156 C 62 152.78125 62.359375 155.183594 62.710938 157.515625 C 62.988281 159.371094 63.257812 161.128906 63.402344 162.882812 C 63.53125 169.089844 63.628906 175.679688 63.324219 182.179688 L 63.269531 182.660156 C 62.683594 188.167969 62.078125 193.859375 62.042969 199.570312 C 62.007812 203.578125 62.601562 207.414062 63.179688 211.132812 C 63.519531 213.363281 63.855469 215.472656 64.042969 217.597656 C 64.347656 224.621094 64.582031 233.617188 63.855469 242.675781 Z M 219.617188 15.539062 C 218.476562 10.578125 214.730469 5.660156 209.183594 6.5625 L 208.722656 6.632812 L 208.289062 6.804688 C 207.472656 7.136719 206.734375 7.625 206.121094 8.234375 C 205.328125 8.46875 204.519531 8.8125 203.679688 9.28125 C 198.097656 12.550781 193.523438 15.898438 189.703125 19.519531 L 189.613281 19.609375 C 186.894531 22.363281 184.300781 25.253906 181.796875 28.066406 C 179.242188 30.929688 176.59375 33.882812 173.875 36.601562 L 173.613281 36.890625 C 170.054688 41.210938 165.183594 44.578125 160.917969 47.523438 C 156.65625 50.386719 153.226562 54 149.921875 57.472656 C 145.429688 62.023438 141.042969 67 136.890625 72.289062 C 134.316406 75.140625 131.328125 77.617188 128.15625 80.230469 C 126.960938 81.21875 125.769531 82.203125 124.601562 83.210938 L 122.933594 84.832031 C 117.253906 90.414062 111.382812 96.1875 106.367188 102.652344 L 105.421875 104.054688 C 104.953125 104.765625 104.472656 105.488281 104.007812 106.191406 C 101.765625 108.351562 99.097656 110.367188 95.433594 112.699219 L 95.246094 112.828125 C 95 112.996094 94.183594 113.386719 93.578125 113.664062 C 93.355469 113.773438 93.121094 113.878906 92.886719 113.988281 C 90.273438 114.113281 87.367188 115.90625 85.609375 120.722656 L 85.554688 120.886719 C 84.671875 123.675781 84.824219 126.398438 84.960938 128.800781 C 84.988281 129.269531 85.015625 129.738281 85.035156 130.195312 L 85.078125 130.65625 C 86.097656 137.292969 86.121094 143.894531 86.148438 150.890625 C 86.160156 153.320312 86.167969 155.832031 86.230469 158.382812 C 86.367188 162.289062 86.003906 166.371094 85.628906 170.683594 C 85.230469 175.113281 84.824219 179.6875 84.988281 184.207031 C 84.953125 191.015625 86.285156 197.578125 87.582031 203.929688 L 87.816406 205.070312 L 87.871094 205.296875 C 89.375 210.988281 89.230469 216.929688 89.085938 223.226562 C 89.039062 225.035156 89.003906 226.910156 88.996094 228.773438 C 88.832031 232.230469 89.011719 235.632812 89.175781 238.929688 C 89.320312 241.683594 89.453125 244.296875 89.402344 246.898438 C 89.195312 247.621094 89.15625 248.382812 89.292969 249.140625 C 89.292969 249.898438 89.375 250.933594 89.859375 251.976562 C 90.113281 256.839844 90.96875 262.261719 94.488281 266.890625 C 96.695312 269.988281 99.394531 272.417969 102.007812 274.769531 C 103.257812 275.894531 104.4375 276.957031 105.546875 278.074219 L 105.628906 278.15625 C 107.3125 279.757812 108.832031 281.578125 110.445312 283.503906 C 112.875 286.410156 115.386719 289.417969 118.703125 291.90625 C 125.4375 296.894531 131.191406 301.421875 136.875 306.222656 C 137.585938 306.808594 138.316406 307.375 139.035156 307.953125 C 141.304688 309.742188 143.445312 311.4375 145.257812 313.371094 C 146.023438 314.363281 146.789062 315.351562 147.542969 316.34375 C 151.742188 321.828125 156.082031 327.5 161.773438 332.101562 C 164.167969 334.246094 166.554688 336.496094 168.859375 338.667969 C 173.460938 343.007812 178.214844 347.480469 183.457031 351.535156 L 183.574219 351.625 C 187.21875 354.226562 190.453125 357.421875 193.136719 360.207031 C 196.441406 363.636719 201.429688 368.816406 208.433594 369.320312 C 208.625 369.328125 208.8125 369.335938 209.003906 369.335938 C 213.171875 369.335938 217.035156 366.871094 218.746094 363.070312 C 219.394531 361.691406 219.511719 360.207031 219.125 358.792969 L 219.125 358.765625 C 219.746094 355.433594 219.851562 352.136719 219.953125 348.949219 C 219.988281 347.90625 220.015625 346.859375 220.070312 345.761719 C 220.167969 342.945312 220.285156 340.117188 220.410156 337.296875 C 220.761719 329.15625 221.121094 320.738281 220.84375 312.335938 C 220.707031 309.113281 220.484375 305.871094 220.265625 302.730469 C 219.941406 298.0625 219.617188 293.238281 219.574219 288.617188 C 219.65625 281.324219 219.203125 273.996094 218.773438 266.917969 C 218.457031 261.820312 218.140625 256.550781 218.023438 251.402344 L 218.023438 251.300781 C 217.835938 247.296875 218.25 242.855469 218.644531 238.570312 C 218.90625 235.777344 219.175781 232.886719 219.285156 230.042969 C 219.617188 220.777344 219.671875 213.238281 219.472656 206.324219 C 219.382812 203.578125 219.519531 200.839844 219.65625 197.941406 C 219.789062 195.15625 219.925781 192.285156 219.851562 189.332031 C 219.617188 182.945312 219.421875 175.554688 220.042969 168.421875 C 220.679688 164.441406 220.96875 160.460938 221.238281 156.597656 C 221.402344 154.382812 221.5625 152.097656 221.789062 149.917969 C 222.417969 144.289062 222.4375 138.660156 222.457031 133.214844 C 222.457031 131.214844 222.464844 129.214844 222.507812 127.226562 L 222.507812 127.171875 C 222.507812 127.171875 222.507812 127.117188 222.507812 127.117188 C 222.480469 123.742188 222.582031 120.273438 222.671875 116.925781 C 222.871094 109.757812 223.066406 102.355469 222.175781 94.953125 C 221.871094 91.808594 221.394531 88.683594 220.925781 85.648438 C 219.996094 79.589844 219.113281 73.863281 219.554688 68.152344 C 219.90625 65.742188 220.5 63.355469 221.121094 60.824219 C 221.878906 57.761719 222.664062 54.601562 223.023438 51.304688 C 223.867188 44.046875 223.382812 37.800781 222.714844 32.042969 C 222.085938 27.441406 221.160156 21.410156 219.574219 15.484375 Z M 209.488281 56.402344 C 208.238281 63.425781 206.949219 70.691406 207.121094 78.3125 C 207.058594 85.480469 207.570312 92.675781 208.054688 99.632812 C 208.679688 108.511719 209.328125 117.699219 208.757812 126.523438 C 208.625 128.214844 208.472656 129.910156 208.316406 131.609375 C 207.722656 138.238281 207.109375 145.101562 207.226562 151.96875 L 207.226562 152.113281 C 207.382812 154.996094 207.617188 157.894531 207.832031 160.695312 C 208.453125 168.484375 209.027344 175.84375 208.074219 183.242188 C 207.785156 185.601562 207.398438 187.917969 206.984375 190.375 C 206.292969 194.527344 205.570312 198.8125 205.398438 203.289062 C 205.238281 210.332031 205.75 217.382812 206.246094 224.199219 C 206.941406 233.761719 207.589844 242.792969 206.589844 251.90625 C 206.425781 252.960938 206.265625 254.011719 206.101562 255.066406 C 205.058594 261.792969 203.976562 268.753906 204.203125 275.894531 C 204.21875 281.683594 204.976562 287.375 205.714844 292.867188 C 205.886719 294.15625 206.058594 295.445312 206.21875 296.675781 C 206.785156 301.710938 206.667969 306.753906 206.542969 312.09375 C 206.453125 315.804688 206.363281 319.640625 206.527344 323.421875 C 206.632812 326.96875 207.019531 330.472656 207.398438 333.859375 C 208.03125 339.496094 208.625 344.816406 207.957031 350.128906 C 207.757812 351.679688 207.5625 353.15625 207.136719 354.425781 C 206.859375 354.488281 206.578125 354.578125 206.300781 354.695312 C 206.15625 354.757812 206.019531 354.820312 205.894531 354.894531 C 204.816406 354.183594 203.734375 353.363281 202.617188 352.523438 C 201.472656 351.660156 200.304688 350.769531 199.042969 349.941406 C 196.960938 348.480469 194.261719 346.546875 191.703125 344.4375 C 190.019531 342.960938 188.523438 341.171875 186.949219 339.269531 C 186.183594 338.351562 185.425781 337.441406 184.609375 336.515625 C 183.320312 335.101562 182.132812 333.570312 180.878906 331.949219 C 178.882812 329.363281 176.808594 326.699219 174.171875 324.320312 C 172.839844 323.140625 171.46875 322.027344 170.144531 320.9375 C 167.671875 318.902344 165.328125 316.984375 163.292969 314.796875 C 159.519531 310.347656 155.117188 306.71875 150.867188 303.214844 C 149.15625 301.808594 147.390625 300.351562 145.726562 298.882812 C 144.4375 297.523438 143.140625 296.09375 141.898438 294.707031 C 137.566406 289.90625 133.089844 284.933594 127.203125 281.269531 C 124.746094 279.648438 122.394531 278.019531 120.585938 276.011719 C 119.613281 274.875 118.675781 273.695312 117.695312 272.453125 C 116.214844 270.582031 114.6875 268.644531 113.003906 266.863281 C 111.390625 265.097656 109.671875 263.503906 108.011719 261.953125 C 106.617188 260.648438 105.292969 259.425781 104.050781 258.128906 C 103.113281 257.039062 102.0625 255.660156 101.917969 254.425781 C 101.945312 252.714844 102.152344 250.960938 102.375 249.105469 C 102.554688 247.609375 102.738281 246.0625 102.835938 244.476562 C 103.132812 241.496094 102.972656 238.640625 102.808594 235.878906 C 102.691406 233.933594 102.59375 232.085938 102.648438 230.285156 C 102.835938 229.113281 103.152344 226.898438 102.035156 224.910156 C 101.855469 214.519531 101.089844 204.242188 100.277344 194.664062 L 100.261719 194.507812 C 99.972656 192.203125 99.65625 189.90625 99.339844 187.601562 C 98.820312 183.800781 98.277344 179.875 97.910156 176.058594 C 97.171875 167.953125 97.125 161.316406 97.773438 155.183594 C 99.351562 146.441406 99.683594 137.4375 98.765625 128.414062 C 98.882812 128.171875 99.171875 127.730469 99.378906 127.421875 L 99.496094 127.253906 C 99.792969 126.8125 100.035156 126.34375 100.242188 125.847656 C 101.0625 125.261719 101.90625 124.6875 102.800781 124.089844 C 103.824219 123.398438 104.890625 122.6875 105.96875 121.902344 L 106.070312 121.832031 C 107.085938 121.265625 107.996094 120.679688 108.84375 120.058594 C 111.101562 118.707031 113.515625 115.519531 114.875 112.855469 C 115.632812 112 116.386719 111.144531 117.144531 110.289062 C 118.855469 108.34375 120.476562 106.515625 122.140625 104.730469 C 124.203125 102.507812 126.195312 100.101562 128.113281 97.769531 C 131.308594 93.898438 134.605469 89.902344 138.25 86.792969 L 138.386719 86.667969 C 144.652344 80.824219 151.839844 75.890625 158.828125 71.097656 C 161.601562 69.152344 163.878906 66.839844 166.085938 64.597656 C 166.832031 63.832031 167.589844 63.074219 168.292969 62.382812 C 169.839844 60.941406 171.378906 59.472656 172.910156 58.015625 C 174.902344 56.105469 176.972656 54.132812 179.042969 52.261719 C 180.863281 50.59375 182.769531 49.046875 184.777344 47.40625 C 187.707031 45.019531 190.742188 42.554688 193.503906 39.707031 C 195.980469 37.152344 198.222656 34.378906 200.382812 31.695312 C 202.355469 29.246094 204.273438 26.875 206.300781 24.722656 C 206.886719 27.9375 207.433594 31.136719 207.902344 34.367188 C 208.019531 35.234375 208.148438 36.097656 208.273438 36.960938 C 209.234375 43.695312 210.144531 50.0625 209.488281 56.394531 Z M 288.8125 273.976562 C 283.085938 282.152344 277.734375 289.417969 270.578125 295.289062 L 270.503906 295.34375 C 269.695312 295.976562 268.910156 296.640625 268.117188 297.296875 C 266.839844 298.371094 265.507812 299.488281 264.074219 300.511719 L 263.578125 300.8125 C 263.5 300.855469 263.417969 300.910156 263.335938 300.953125 C 262.804688 301.269531 261.996094 301.757812 260.898438 301.972656 L 260.507812 302.042969 L 260.113281 302.042969 C 258.824219 302.042969 257.628906 301.511719 256.746094 300.53125 C 255.789062 299.488281 255.296875 298.046875 255.421875 296.667969 L 255.464844 296.191406 L 255.621094 295.742188 C 256.476562 293.191406 258.394531 291.804688 259.796875 290.796875 C 260.292969 290.4375 260.859375 290.03125 261.066406 289.769531 L 261.285156 289.527344 C 262.914062 287.808594 264.191406 285.648438 265.542969 283.359375 C 266.460938 281.800781 267.417969 280.199219 268.53125 278.632812 C 270.097656 276.335938 271.828125 274.203125 273.503906 272.140625 C 275.699219 269.4375 277.773438 266.878906 279.410156 264.089844 C 280.851562 261.226562 281.777344 258.066406 282.75 254.734375 C 283.722656 251.429688 284.722656 248.007812 286.289062 244.691406 C 287.441406 241.972656 288.757812 239.324219 290.027344 236.769531 C 292.339844 232.105469 294.53125 227.699219 295.753906 222.980469 C 298.160156 213.339844 298.390625 202.9375 298.617188 192.886719 C 298.652344 191.421875 298.679688 189.960938 298.726562 188.503906 C 298.808594 179.445312 298.589844 167.503906 296.148438 156.050781 C 295.546875 153.746094 294.988281 151.375 294.441406 149.089844 C 292.054688 139.039062 289.792969 129.546875 283.785156 122.019531 C 280.644531 118.21875 277.132812 114.546875 273.746094 110.988281 C 272.226562 109.457031 270.730469 107.792969 269.28125 106.179688 C 266.902344 103.535156 264.652344 101.019531 262.101562 98.914062 C 261.609375 98.546875 261.105469 98.183594 260.609375 97.816406 C 257.257812 95.367188 253.792969 92.828125 250.847656 89.503906 C 250.261719 88.839844 249.730469 88.171875 249.226562 87.53125 C 248.640625 86.792969 248.101562 86.089844 247.535156 85.515625 C 245.617188 83.5625 244.914062 80.453125 245.785156 77.78125 C 246.460938 75.816406 247.777344 74.4375 249.496094 73.835938 C 252.585938 72.746094 255.53125 74.574219 256.503906 75.179688 C 257.65625 75.917969 258.871094 76.546875 260.160156 77.203125 C 260.988281 77.628906 261.816406 78.058594 262.625 78.507812 C 271.730469 83.480469 278.015625 91.78125 282.949219 99.246094 C 285.148438 102.472656 287.6875 105.6875 290.144531 108.785156 C 292.84375 112.207031 295.644531 115.734375 298.148438 119.492188 C 303.058594 127.125 306.902344 135.527344 309.621094 144.515625 C 314.394531 158.238281 315.988281 171.898438 314.359375 185.125 L 314.089844 187.703125 C 313.277344 195.453125 312.449219 203.46875 310.386719 211.304688 C 309.414062 215.535156 308.667969 219.9375 307.945312 224.207031 C 307.246094 228.375 306.515625 232.679688 305.570312 236.929688 C 304.625 241.117188 303.175781 245.402344 300.851562 250.816406 C 297.410156 258.949219 293.898438 266.835938 288.820312 273.949219 Z M 367.484375 196.914062 L 367.46875 197.121094 C 366.566406 206.496094 365.398438 216.734375 363.882812 228.402344 C 362.632812 237.6875 360.460938 246.828125 358.363281 255.660156 L 357.597656 258.910156 C 356.871094 261.855469 356.25 264.890625 355.644531 267.816406 C 354.3125 274.328125 352.933594 281.0625 350.261719 287.5 C 348.261719 292.617188 345.371094 297.21875 342.578125 301.675781 C 339.886719 305.96875 337.339844 310.03125 335.582031 314.480469 L 335.539062 314.585938 C 332.636719 321.394531 329.621094 326.554688 326.054688 330.839844 C 323.9375 333.371094 321.597656 335.578125 319.335938 337.722656 C 317.230469 339.710938 315.242188 341.59375 313.484375 343.65625 C 308.214844 350.011719 302.09375 355.480469 295.332031 359.855469 L 295.097656 360.027344 C 294.304688 360.628906 292.820312 361.746094 290.792969 361.765625 C 289.332031 361.765625 287.984375 361.1875 286.964844 360.144531 C 285.820312 358.972656 285.164062 357.242188 285.21875 355.542969 L 285.21875 355.316406 C 285.480469 352.355469 287.53125 350.671875 288.765625 349.660156 C 289.027344 349.453125 289.289062 349.230469 289.433594 349.085938 L 289.550781 348.96875 C 291.378906 347.265625 293.304688 345.753906 295.167969 344.292969 C 297.996094 342.070312 300.671875 339.972656 302.734375 337.460938 C 308.308594 329.75 313.789062 321.449219 319.472656 312.09375 C 321.714844 308.113281 324.964844 302.378906 327.828125 297.53125 C 331.988281 290.320312 334.464844 282.378906 337.09375 273.976562 C 337.671875 272.148438 338.238281 270.3125 338.832031 268.492188 C 340.246094 263.980469 342.148438 259.648438 343.984375 255.460938 C 345.910156 251.066406 347.738281 246.917969 349.035156 242.558594 C 350.492188 237.039062 350.636719 231.277344 350.792969 225.179688 L 350.816406 224.199219 C 351.015625 219.585938 351.179688 214.84375 351.324219 209.617188 L 351.324219 209.511719 C 351.601562 204.421875 352.089844 199.289062 352.546875 194.328125 C 353.554688 183.585938 354.601562 172.472656 353.527344 161.703125 C 352.621094 152.222656 350.105469 142.75 347.675781 133.582031 C 347.261719 132.007812 346.839844 130.429688 346.433594 128.847656 L 345.730469 126.40625 C 341.714844 112.484375 337.554688 98.09375 330.648438 85.398438 C 328.34375 81.632812 325.226562 77.886719 321.136719 73.953125 L 320.984375 73.789062 L 319.796875 72.511719 C 316.078125 68.515625 312.222656 64.371094 308.296875 60.5 C 307.425781 59.609375 306.613281 58.761719 305.792969 57.90625 C 303.210938 55.207031 300.761719 52.65625 298.042969 50.421875 C 294.394531 47.632812 289.972656 45.210938 285.695312 42.859375 C 284.15625 42.011719 282.652344 41.183594 281.210938 40.363281 C 279.691406 39.535156 278.078125 38.746094 276.375 37.90625 C 273.972656 36.71875 271.484375 35.492188 269.226562 34.152344 C 268.632812 33.820312 268.046875 33.484375 267.453125 33.144531 C 264.136719 31.234375 263.175781 27.019531 264.128906 24.003906 C 264.722656 22.039062 266.21875 20.484375 268.15625 19.835938 C 269.972656 19.214844 271.898438 19.472656 273.484375 20.527344 C 274.53125 21.121094 275.554688 21.742188 276.582031 22.363281 C 277.339844 22.816406 278.09375 23.273438 278.851562 23.714844 C 280.796875 24.824219 282.886719 25.757812 284.488281 26.445312 L 284.847656 26.613281 C 287.8125 28.234375 291.0625 29.398438 294.492188 30.621094 C 299.058594 32.25 303.785156 33.9375 308.109375 36.863281 L 308.28125 36.980469 C 314.933594 42.003906 321.480469 48.0625 327.738281 55.007812 C 330.261719 57.925781 332.726562 60.777344 335.175781 63.652344 C 339.707031 69.027344 343.632812 75.546875 347.558594 84.171875 C 348.675781 86.558594 349.910156 89.019531 351.105469 91.394531 C 354.25 97.644531 357.5 104.101562 359.5 111.167969 C 363.363281 123.894531 363.992188 137.195312 364.605469 150.050781 L 364.75 152.980469 C 365.0625 157.210938 365.496094 161.535156 365.910156 165.722656 C 366.929688 175.886719 367.980469 186.40625 367.511719 196.941406 Z M 264.839844 212.625 C 261.410156 222.75 257.214844 233.085938 247.039062 238.433594 C 246.480469 238.714844 245.957031 239.011719 245.410156 239.316406 C 243.085938 240.621094 240.105469 242.289062 236.871094 242.289062 C 235.925781 242.289062 234.953125 242.144531 233.972656 241.800781 C 232.035156 241.28125 230.460938 239.660156 229.894531 237.570312 C 228.523438 232.238281 233.667969 230.050781 235.351562 229.332031 C 235.738281 229.167969 236.3125 228.917969 236.492188 228.800781 L 236.738281 228.601562 L 236.960938 228.484375 C 241.761719 225.746094 245.8125 221.269531 249.378906 214.796875 L 249.441406 214.6875 C 259.976562 196.796875 256.960938 175.148438 252.578125 160.136719 C 251.34375 155.691406 247.839844 152.367188 244.121094 148.847656 C 243.238281 148.007812 242.347656 147.171875 241.492188 146.316406 C 241.167969 145.992188 240.832031 145.675781 240.5 145.359375 C 238.085938 143.082031 234.054688 139.273438 235.917969 133.539062 L 236.015625 133.277344 C 237.464844 129.691406 240.050781 128.800781 241.464844 128.585938 C 246.679688 127.792969 251.578125 133.214844 256.152344 138.832031 C 256.4375 139.191406 256.691406 139.5 256.890625 139.734375 L 256.996094 139.859375 C 270.253906 156.933594 274.945312 179.316406 269.242188 198.292969 C 267.855469 203.53125 266.171875 208.691406 264.851562 212.609375 Z M 264.839844 212.625 " fill-opacity="1" fill-rule="nonzero"/></g></svg>